<svg width="245" height="256" viewBox="0 0 245 256" fill="none" xmlns="http://www.w3.org/2000/svg">
<rect y="6" width="245" height="245" rx="69" fill="#B1D0AF"/>
<path d="M152.095 126.4C159.618 128.003 165.662 131.765 170.225 137.685C174.788 143.482 177.07 150.142 177.07 157.665C177.07 168.518 173.247 177.152 165.6 183.565C158.077 189.855 147.532 193 133.965 193H73.47V63.13H131.93C145.127 63.13 155.425 66.1517 162.825 72.195C170.348 78.2383 174.11 86.44 174.11 96.8C174.11 104.447 172.075 110.798 168.005 115.855C164.058 120.912 158.755 124.427 152.095 126.4ZM105.105 115.67H125.825C131.005 115.67 134.952 114.56 137.665 112.34C140.502 109.997 141.92 106.605 141.92 102.165C141.92 97.725 140.502 94.3333 137.665 91.99C134.952 89.6467 131.005 88.475 125.825 88.475H105.105V115.67ZM128.415 167.47C133.718 167.47 137.788 166.298 140.625 163.955C143.585 161.488 145.065 157.973 145.065 153.41C145.065 148.847 143.523 145.27 140.44 142.68C137.48 140.09 133.348 138.795 128.045 138.795H105.105V167.47H128.415Z" fill="#0E430A"/>
</svg>
