<svg width="591" height="192" viewBox="0 0 591 192" fill="none" xmlns="http://www.w3.org/2000/svg">
<path d="M300.456 72.168C298.872 72.168 297.416 71.8 296.088 71.064C294.776 70.328 293.728 69.304 292.944 67.992C292.176 66.664 291.792 65.176 291.792 63.528C291.792 61.88 292.176 60.4 292.944 59.088C293.728 57.776 294.776 56.752 296.088 56.016C297.416 55.28 298.872 54.912 300.456 54.912C302.04 54.912 303.488 55.28 304.8 56.016C306.128 56.752 307.168 57.776 307.92 59.088C308.688 60.4 309.072 61.88 309.072 63.528C309.072 65.176 308.688 66.664 307.92 67.992C307.152 69.304 306.112 70.328 304.8 71.064C303.488 71.8 302.04 72.168 300.456 72.168ZM300.456 68.424C301.8 68.424 302.872 67.976 303.672 67.08C304.488 66.184 304.896 65 304.896 63.528C304.896 62.04 304.488 60.856 303.672 59.976C302.872 59.08 301.8 58.632 300.456 58.632C299.096 58.632 298.008 59.072 297.192 59.952C296.392 60.832 295.992 62.024 295.992 63.528C295.992 65.016 296.392 66.208 297.192 67.104C298.008 67.984 299.096 68.424 300.456 68.424ZM317.451 72.192C316.139 72.192 314.955 71.912 313.899 71.352C312.859 70.792 312.035 69.992 311.427 68.952C310.835 67.912 310.539 66.696 310.539 65.304C310.539 63.928 310.843 62.72 311.451 61.68C312.059 60.624 312.891 59.816 313.947 59.256C315.003 58.696 316.187 58.416 317.499 58.416C318.811 58.416 319.995 58.696 321.051 59.256C322.107 59.816 322.939 60.624 323.547 61.68C324.155 62.72 324.459 63.928 324.459 65.304C324.459 66.68 324.147 67.896 323.523 68.952C322.915 69.992 322.075 70.792 321.003 71.352C319.947 71.912 318.763 72.192 317.451 72.192ZM317.451 68.64C318.235 68.64 318.899 68.352 319.443 67.776C320.003 67.2 320.283 66.376 320.283 65.304C320.283 64.232 320.011 63.408 319.467 62.832C318.939 62.256 318.283 61.968 317.499 61.968C316.699 61.968 316.035 62.256 315.507 62.832C314.979 63.392 314.715 64.216 314.715 65.304C314.715 66.376 314.971 67.2 315.483 67.776C316.011 68.352 316.667 68.64 317.451 68.64ZM330.74 60.504C331.14 59.88 331.692 59.376 332.396 58.992C333.1 58.608 333.924 58.416 334.868 58.416C335.972 58.416 336.972 58.696 337.868 59.256C338.764 59.816 339.468 60.616 339.98 61.656C340.508 62.696 340.772 63.904 340.772 65.28C340.772 66.656 340.508 67.872 339.98 68.928C339.468 69.968 338.764 70.776 337.868 71.352C336.972 71.912 335.972 72.192 334.868 72.192C333.94 72.192 333.116 72 332.396 71.616C331.692 71.232 331.14 70.736 330.74 70.128V78.384H326.636V58.608H330.74V60.504ZM336.596 65.28C336.596 64.256 336.308 63.456 335.732 62.88C335.172 62.288 334.476 61.992 333.644 61.992C332.828 61.992 332.132 62.288 331.556 62.88C330.996 63.472 330.716 64.28 330.716 65.304C330.716 66.328 330.996 67.136 331.556 67.728C332.132 68.32 332.828 68.616 333.644 68.616C334.46 68.616 335.156 68.32 335.732 67.728C336.308 67.12 336.596 66.304 336.596 65.28ZM348.374 72.192C347.206 72.192 346.166 71.992 345.254 71.592C344.342 71.192 343.622 70.648 343.094 69.96C342.566 69.256 342.27 68.472 342.206 67.608H346.262C346.31 68.072 346.526 68.448 346.91 68.736C347.294 69.024 347.766 69.168 348.326 69.168C348.838 69.168 349.23 69.072 349.502 68.88C349.79 68.672 349.934 68.408 349.934 68.088C349.934 67.704 349.734 67.424 349.334 67.248C348.934 67.056 348.286 66.848 347.39 66.624C346.43 66.4 345.63 66.168 344.99 65.928C344.35 65.672 343.798 65.28 343.334 64.752C342.87 64.208 342.638 63.48 342.638 62.568C342.638 61.8 342.846 61.104 343.262 60.48C343.694 59.84 344.318 59.336 345.134 58.968C345.966 58.6 346.95 58.416 348.086 58.416C349.766 58.416 351.086 58.832 352.046 59.664C353.022 60.496 353.582 61.6 353.726 62.976H349.934C349.87 62.512 349.662 62.144 349.31 61.872C348.974 61.6 348.526 61.464 347.966 61.464C347.486 61.464 347.118 61.56 346.862 61.752C346.606 61.928 346.478 62.176 346.478 62.496C346.478 62.88 346.678 63.168 347.078 63.36C347.494 63.552 348.134 63.744 348.998 63.936C349.99 64.192 350.798 64.448 351.422 64.704C352.046 64.944 352.59 65.344 353.054 65.904C353.534 66.448 353.782 67.184 353.798 68.112C353.798 68.896 353.574 69.6 353.126 70.224C352.694 70.832 352.062 71.312 351.23 71.664C350.414 72.016 349.462 72.192 348.374 72.192ZM361.708 54.552L361.228 66.048H357.748L357.268 54.552H361.708ZM359.548 72.192C358.828 72.192 358.236 71.984 357.772 71.568C357.324 71.136 357.1 70.608 357.1 69.984C357.1 69.344 357.324 68.808 357.772 68.376C358.236 67.944 358.828 67.728 359.548 67.728C360.252 67.728 360.828 67.944 361.276 68.376C361.74 68.808 361.972 69.344 361.972 69.984C361.972 70.608 361.74 71.136 361.276 71.568C360.828 71.984 360.252 72.192 359.548 72.192Z" fill="#FF6969"/>
<path d="M299.384 99.88V101.368H296.424V111H294.6V101.368H291.624V99.88H299.384ZM305.791 102.04C306.463 102.04 307.061 102.184 307.583 102.472C308.117 102.76 308.533 103.187 308.831 103.752C309.141 104.317 309.295 105 309.295 105.8V111H307.487V106.072C307.487 105.283 307.29 104.68 306.895 104.264C306.501 103.837 305.962 103.624 305.279 103.624C304.597 103.624 304.053 103.837 303.647 104.264C303.253 104.68 303.055 105.283 303.055 106.072V111H301.231V99.16H303.055V103.208C303.365 102.835 303.754 102.547 304.223 102.344C304.703 102.141 305.226 102.04 305.791 102.04ZM319.702 106.376C319.702 106.707 319.681 107.005 319.638 107.272H312.902C312.955 107.976 313.217 108.541 313.686 108.968C314.155 109.395 314.731 109.608 315.414 109.608C316.395 109.608 317.089 109.197 317.494 108.376H319.462C319.195 109.187 318.71 109.853 318.006 110.376C317.313 110.888 316.449 111.144 315.414 111.144C314.571 111.144 313.814 110.957 313.142 110.584C312.481 110.2 311.958 109.667 311.574 108.984C311.201 108.291 311.014 107.491 311.014 106.584C311.014 105.677 311.195 104.883 311.558 104.2C311.931 103.507 312.449 102.973 313.11 102.6C313.782 102.227 314.55 102.04 315.414 102.04C316.246 102.04 316.987 102.221 317.638 102.584C318.289 102.947 318.795 103.459 319.158 104.12C319.521 104.771 319.702 105.523 319.702 106.376ZM317.798 105.8C317.787 105.128 317.547 104.589 317.078 104.184C316.609 103.779 316.027 103.576 315.334 103.576C314.705 103.576 314.166 103.779 313.718 104.184C313.27 104.579 313.003 105.117 312.918 105.8H317.798ZM325.045 106.552C325.045 105.667 325.226 104.883 325.589 104.2C325.962 103.517 326.464 102.989 327.093 102.616C327.733 102.232 328.442 102.04 329.221 102.04C329.797 102.04 330.362 102.168 330.917 102.424C331.482 102.669 331.93 103 332.261 103.416V99.16H334.101V111H332.261V109.672C331.962 110.099 331.546 110.451 331.013 110.728C330.49 111.005 329.888 111.144 329.205 111.144C328.437 111.144 327.733 110.952 327.093 110.568C326.464 110.173 325.962 109.629 325.589 108.936C325.226 108.232 325.045 107.437 325.045 106.552ZM332.261 106.584C332.261 105.976 332.133 105.448 331.877 105C331.632 104.552 331.306 104.211 330.901 103.976C330.496 103.741 330.058 103.624 329.589 103.624C329.12 103.624 328.682 103.741 328.277 103.976C327.872 104.2 327.541 104.536 327.285 104.984C327.04 105.421 326.917 105.944 326.917 106.552C326.917 107.16 327.04 107.693 327.285 108.152C327.541 108.611 327.872 108.963 328.277 109.208C328.693 109.443 329.13 109.56 329.589 109.56C330.058 109.56 330.496 109.443 330.901 109.208C331.306 108.973 331.632 108.632 331.877 108.184C332.133 107.725 332.261 107.192 332.261 106.584ZM335.889 106.552C335.889 105.667 336.07 104.883 336.433 104.2C336.806 103.517 337.308 102.989 337.937 102.616C338.577 102.232 339.281 102.04 340.049 102.04C340.742 102.04 341.345 102.179 341.857 102.456C342.38 102.723 342.796 103.059 343.105 103.464V102.184H344.945V111H343.105V109.688C342.796 110.104 342.374 110.451 341.841 110.728C341.308 111.005 340.7 111.144 340.017 111.144C339.26 111.144 338.566 110.952 337.937 110.568C337.308 110.173 336.806 109.629 336.433 108.936C336.07 108.232 335.889 107.437 335.889 106.552ZM343.105 106.584C343.105 105.976 342.977 105.448 342.721 105C342.476 104.552 342.15 104.211 341.745 103.976C341.34 103.741 340.902 103.624 340.433 103.624C339.964 103.624 339.526 103.741 339.121 103.976C338.716 104.2 338.385 104.536 338.129 104.984C337.884 105.421 337.761 105.944 337.761 106.552C337.761 107.16 337.884 107.693 338.129 108.152C338.385 108.611 338.716 108.963 339.121 109.208C339.537 109.443 339.974 109.56 340.433 109.56C340.902 109.56 341.34 109.443 341.745 109.208C342.15 108.973 342.476 108.632 342.721 108.184C342.977 107.725 343.105 107.192 343.105 106.584ZM349.469 103.672V108.552C349.469 108.883 349.543 109.123 349.693 109.272C349.853 109.411 350.119 109.48 350.493 109.48H351.613V111H350.173C349.351 111 348.722 110.808 348.285 110.424C347.847 110.04 347.629 109.416 347.629 108.552V103.672H346.589V102.184H347.629V99.992H349.469V102.184H351.613V103.672H349.469ZM352.686 106.552C352.686 105.667 352.867 104.883 353.23 104.2C353.603 103.517 354.104 102.989 354.734 102.616C355.374 102.232 356.078 102.04 356.846 102.04C357.539 102.04 358.142 102.179 358.654 102.456C359.176 102.723 359.592 103.059 359.902 103.464V102.184H361.742V111H359.902V109.688C359.592 110.104 359.171 110.451 358.638 110.728C358.104 111.005 357.496 111.144 356.814 111.144C356.056 111.144 355.363 110.952 354.734 110.568C354.104 110.173 353.603 109.629 353.23 108.936C352.867 108.232 352.686 107.437 352.686 106.552ZM359.902 106.584C359.902 105.976 359.774 105.448 359.518 105C359.272 104.552 358.947 104.211 358.542 103.976C358.136 103.741 357.699 103.624 357.23 103.624C356.76 103.624 356.323 103.741 355.918 103.976C355.512 104.2 355.182 104.536 354.926 104.984C354.68 105.421 354.558 105.944 354.558 106.552C354.558 107.16 354.68 107.693 354.926 108.152C355.182 108.611 355.512 108.963 355.918 109.208C356.334 109.443 356.771 109.56 357.23 109.56C357.699 109.56 358.136 109.443 358.542 109.208C358.947 108.973 359.272 108.632 359.518 108.184C359.774 107.725 359.902 107.192 359.902 106.584ZM376.23 102.184L370.822 115.144H368.934L370.726 110.856L367.254 102.184H369.286L371.766 108.904L374.342 102.184H376.23ZM381.43 111.144C380.598 111.144 379.846 110.957 379.174 110.584C378.502 110.2 377.974 109.667 377.59 108.984C377.206 108.291 377.014 107.491 377.014 106.584C377.014 105.688 377.212 104.893 377.606 104.2C378.001 103.507 378.54 102.973 379.222 102.6C379.905 102.227 380.668 102.04 381.51 102.04C382.353 102.04 383.116 102.227 383.798 102.6C384.481 102.973 385.02 103.507 385.414 104.2C385.809 104.893 386.006 105.688 386.006 106.584C386.006 107.48 385.804 108.275 385.398 108.968C384.993 109.661 384.438 110.2 383.734 110.584C383.041 110.957 382.273 111.144 381.43 111.144ZM381.43 109.56C381.9 109.56 382.337 109.448 382.742 109.224C383.158 109 383.494 108.664 383.75 108.216C384.006 107.768 384.134 107.224 384.134 106.584C384.134 105.944 384.012 105.405 383.766 104.968C383.521 104.52 383.196 104.184 382.79 103.96C382.385 103.736 381.948 103.624 381.478 103.624C381.009 103.624 380.572 103.736 380.166 103.96C379.772 104.184 379.457 104.52 379.222 104.968C378.988 105.405 378.87 105.944 378.87 106.584C378.87 107.533 379.11 108.269 379.59 108.792C380.081 109.304 380.694 109.56 381.43 109.56ZM395.793 102.184V111H393.969V109.96C393.681 110.323 393.303 110.611 392.833 110.824C392.375 111.027 391.884 111.128 391.361 111.128C390.668 111.128 390.044 110.984 389.489 110.696C388.945 110.408 388.513 109.981 388.193 109.416C387.884 108.851 387.729 108.168 387.729 107.368V102.184H389.537V107.096C389.537 107.885 389.735 108.493 390.129 108.92C390.524 109.336 391.063 109.544 391.745 109.544C392.428 109.544 392.967 109.336 393.361 108.92C393.767 108.493 393.969 107.885 393.969 107.096V102.184H395.793ZM404.18 103.464C404.447 103.016 404.799 102.669 405.236 102.424C405.684 102.168 406.212 102.04 406.82 102.04V103.928H406.356C405.642 103.928 405.098 104.109 404.724 104.472C404.362 104.835 404.18 105.464 404.18 106.36V111H402.356V102.184H404.18V103.464ZM416.577 106.376C416.577 106.707 416.556 107.005 416.513 107.272H409.777C409.83 107.976 410.092 108.541 410.561 108.968C411.03 109.395 411.606 109.608 412.289 109.608C413.27 109.608 413.964 109.197 414.369 108.376H416.337C416.07 109.187 415.585 109.853 414.881 110.376C414.188 110.888 413.324 111.144 412.289 111.144C411.446 111.144 410.689 110.957 410.017 110.584C409.356 110.2 408.833 109.667 408.449 108.984C408.076 108.291 407.889 107.491 407.889 106.584C407.889 105.677 408.07 104.883 408.433 104.2C408.806 103.507 409.324 102.973 409.985 102.6C410.657 102.227 411.425 102.04 412.289 102.04C413.121 102.04 413.862 102.221 414.513 102.584C415.164 102.947 415.67 103.459 416.033 104.12C416.396 104.771 416.577 105.523 416.577 106.376ZM414.673 105.8C414.662 105.128 414.422 104.589 413.953 104.184C413.484 103.779 412.902 103.576 412.209 103.576C411.58 103.576 411.041 103.779 410.593 104.184C410.145 104.579 409.878 105.117 409.793 105.8H414.673ZM417.764 106.552C417.764 105.667 417.945 104.883 418.308 104.2C418.681 103.517 419.183 102.989 419.812 102.616C420.452 102.232 421.161 102.04 421.94 102.04C422.623 102.04 423.225 102.179 423.748 102.456C424.281 102.733 424.692 103.069 424.98 103.464V102.184H426.82V115.192H424.98V109.72C424.692 110.115 424.276 110.451 423.732 110.728C423.188 111.005 422.569 111.144 421.876 111.144C421.119 111.144 420.425 110.952 419.796 110.568C419.177 110.173 418.681 109.629 418.308 108.936C417.945 108.232 417.764 107.437 417.764 106.552ZM424.98 106.584C424.98 105.976 424.852 105.448 424.596 105C424.351 104.552 424.025 104.211 423.62 103.976C423.215 103.741 422.777 103.624 422.308 103.624C421.839 103.624 421.401 103.741 420.996 103.976C420.591 104.2 420.26 104.536 420.004 104.984C419.759 105.421 419.636 105.944 419.636 106.552C419.636 107.16 419.759 107.693 420.004 108.152C420.26 108.611 420.591 108.963 420.996 109.208C421.412 109.443 421.849 109.56 422.308 109.56C422.777 109.56 423.215 109.443 423.62 109.208C424.025 108.973 424.351 108.632 424.596 108.184C424.852 107.725 424.98 107.192 424.98 106.584ZM437.2 102.184V111H435.376V109.96C435.088 110.323 434.709 110.611 434.24 110.824C433.781 111.027 433.29 111.128 432.768 111.128C432.074 111.128 431.45 110.984 430.896 110.696C430.352 110.408 429.92 109.981 429.6 109.416C429.29 108.851 429.136 108.168 429.136 107.368V102.184H430.944V107.096C430.944 107.885 431.141 108.493 431.536 108.92C431.93 109.336 432.469 109.544 433.152 109.544C433.834 109.544 434.373 109.336 434.768 108.92C435.173 108.493 435.376 107.885 435.376 107.096V102.184H437.2ZM447.686 106.376C447.686 106.707 447.665 107.005 447.622 107.272H440.886C440.94 107.976 441.201 108.541 441.67 108.968C442.14 109.395 442.716 109.608 443.398 109.608C444.38 109.608 445.073 109.197 445.478 108.376H447.446C447.18 109.187 446.694 109.853 445.99 110.376C445.297 110.888 444.433 111.144 443.398 111.144C442.556 111.144 441.798 110.957 441.126 110.584C440.465 110.2 439.942 109.667 439.558 108.984C439.185 108.291 438.998 107.491 438.998 106.584C438.998 105.677 439.18 104.883 439.542 104.2C439.916 103.507 440.433 102.973 441.094 102.6C441.766 102.227 442.534 102.04 443.398 102.04C444.23 102.04 444.972 102.221 445.622 102.584C446.273 102.947 446.78 103.459 447.142 104.12C447.505 104.771 447.686 105.523 447.686 106.376ZM445.782 105.8C445.772 105.128 445.532 104.589 445.062 104.184C444.593 103.779 444.012 103.576 443.318 103.576C442.689 103.576 442.15 103.779 441.702 104.184C441.254 104.579 440.988 105.117 440.902 105.8H445.782ZM452.681 111.144C451.988 111.144 451.364 111.021 450.809 110.776C450.265 110.52 449.833 110.179 449.513 109.752C449.193 109.315 449.023 108.829 449.001 108.296H450.889C450.921 108.669 451.097 108.984 451.417 109.24C451.748 109.485 452.159 109.608 452.649 109.608C453.161 109.608 453.556 109.512 453.833 109.32C454.121 109.117 454.265 108.861 454.265 108.552C454.265 108.221 454.105 107.976 453.785 107.816C453.476 107.656 452.98 107.48 452.297 107.288C451.636 107.107 451.097 106.931 450.681 106.76C450.265 106.589 449.903 106.328 449.593 105.976C449.295 105.624 449.145 105.16 449.145 104.584C449.145 104.115 449.284 103.688 449.561 103.304C449.839 102.909 450.233 102.6 450.745 102.376C451.268 102.152 451.865 102.04 452.537 102.04C453.54 102.04 454.345 102.296 454.953 102.808C455.572 103.309 455.903 103.997 455.945 104.872H454.121C454.089 104.477 453.929 104.163 453.641 103.928C453.353 103.693 452.964 103.576 452.473 103.576C451.993 103.576 451.625 103.667 451.369 103.848C451.113 104.029 450.985 104.269 450.985 104.568C450.985 104.803 451.071 105 451.241 105.16C451.412 105.32 451.62 105.448 451.865 105.544C452.111 105.629 452.473 105.741 452.953 105.88C453.593 106.051 454.116 106.227 454.521 106.408C454.937 106.579 455.295 106.835 455.593 107.176C455.892 107.517 456.047 107.971 456.057 108.536C456.057 109.037 455.919 109.485 455.641 109.88C455.364 110.275 454.969 110.584 454.457 110.808C453.956 111.032 453.364 111.144 452.681 111.144ZM460.156 103.672V108.552C460.156 108.883 460.231 109.123 460.38 109.272C460.54 109.411 460.807 109.48 461.18 109.48H462.3V111H460.86C460.039 111 459.409 110.808 458.972 110.424C458.535 110.04 458.316 109.416 458.316 108.552V103.672H457.276V102.184H458.316V99.992H460.156V102.184H462.3V103.672H460.156ZM472.061 106.376C472.061 106.707 472.04 107.005 471.997 107.272H465.261C465.315 107.976 465.576 108.541 466.045 108.968C466.515 109.395 467.091 109.608 467.773 109.608C468.755 109.608 469.448 109.197 469.853 108.376H471.821C471.555 109.187 471.069 109.853 470.365 110.376C469.672 110.888 468.808 111.144 467.773 111.144C466.931 111.144 466.173 110.957 465.501 110.584C464.84 110.2 464.317 109.667 463.933 108.984C463.56 108.291 463.373 107.491 463.373 106.584C463.373 105.677 463.555 104.883 463.917 104.2C464.291 103.507 464.808 102.973 465.469 102.6C466.141 102.227 466.909 102.04 467.773 102.04C468.605 102.04 469.347 102.221 469.997 102.584C470.648 102.947 471.155 103.459 471.517 104.12C471.88 104.771 472.061 105.523 472.061 106.376ZM470.157 105.8C470.147 105.128 469.907 104.589 469.437 104.184C468.968 103.779 468.387 103.576 467.693 103.576C467.064 103.576 466.525 103.779 466.077 104.184C465.629 104.579 465.363 105.117 465.277 105.8H470.157ZM473.248 106.552C473.248 105.667 473.43 104.883 473.792 104.2C474.166 103.517 474.667 102.989 475.296 102.616C475.936 102.232 476.646 102.04 477.424 102.04C478 102.04 478.566 102.168 479.12 102.424C479.686 102.669 480.134 103 480.464 103.416V99.16H482.304V111H480.464V109.672C480.166 110.099 479.75 110.451 479.216 110.728C478.694 111.005 478.091 111.144 477.408 111.144C476.64 111.144 475.936 110.952 475.296 110.568C474.667 110.173 474.166 109.629 473.792 108.936C473.43 108.232 473.248 107.437 473.248 106.552ZM480.464 106.584C480.464 105.976 480.336 105.448 480.08 105C479.835 104.552 479.51 104.211 479.104 103.976C478.699 103.741 478.262 103.624 477.792 103.624C477.323 103.624 476.886 103.741 476.48 103.976C476.075 104.2 475.744 104.536 475.488 104.984C475.243 105.421 475.12 105.944 475.12 106.552C475.12 107.16 475.243 107.693 475.488 108.152C475.744 108.611 476.075 108.963 476.48 109.208C476.896 109.443 477.334 109.56 477.792 109.56C478.262 109.56 478.699 109.443 479.104 109.208C479.51 108.973 479.835 108.632 480.08 108.184C480.336 107.725 480.464 107.192 480.464 106.584ZM488.248 106.552C488.248 105.667 488.43 104.883 488.792 104.2C489.166 103.517 489.667 102.989 490.296 102.616C490.936 102.232 491.646 102.04 492.424 102.04C493 102.04 493.566 102.168 494.12 102.424C494.686 102.669 495.134 103 495.464 103.416V99.16H497.304V111H495.464V109.672C495.166 110.099 494.75 110.451 494.216 110.728C493.694 111.005 493.091 111.144 492.408 111.144C491.64 111.144 490.936 110.952 490.296 110.568C489.667 110.173 489.166 109.629 488.792 108.936C488.43 108.232 488.248 107.437 488.248 106.552ZM495.464 106.584C495.464 105.976 495.336 105.448 495.08 105C494.835 104.552 494.51 104.211 494.104 103.976C493.699 103.741 493.262 103.624 492.792 103.624C492.323 103.624 491.886 103.741 491.48 103.976C491.075 104.2 490.744 104.536 490.488 104.984C490.243 105.421 490.12 105.944 490.12 106.552C490.12 107.16 490.243 107.693 490.488 108.152C490.744 108.611 491.075 108.963 491.48 109.208C491.896 109.443 492.334 109.56 492.792 109.56C493.262 109.56 493.699 109.443 494.104 109.208C494.51 108.973 494.835 108.632 495.08 108.184C495.336 107.725 495.464 107.192 495.464 106.584ZM503.524 111.144C502.692 111.144 501.94 110.957 501.268 110.584C500.596 110.2 500.068 109.667 499.684 108.984C499.3 108.291 499.108 107.491 499.108 106.584C499.108 105.688 499.305 104.893 499.7 104.2C500.095 103.507 500.633 102.973 501.316 102.6C501.999 102.227 502.761 102.04 503.604 102.04C504.447 102.04 505.209 102.227 505.892 102.6C506.575 102.973 507.113 103.507 507.508 104.2C507.903 104.893 508.1 105.688 508.1 106.584C508.1 107.48 507.897 108.275 507.492 108.968C507.087 109.661 506.532 110.2 505.828 110.584C505.135 110.957 504.367 111.144 503.524 111.144ZM503.524 109.56C503.993 109.56 504.431 109.448 504.836 109.224C505.252 109 505.588 108.664 505.844 108.216C506.1 107.768 506.228 107.224 506.228 106.584C506.228 105.944 506.105 105.405 505.86 104.968C505.615 104.52 505.289 104.184 504.884 103.96C504.479 103.736 504.041 103.624 503.572 103.624C503.103 103.624 502.665 103.736 502.26 103.96C501.865 104.184 501.551 104.52 501.316 104.968C501.081 105.405 500.964 105.944 500.964 106.584C500.964 107.533 501.204 108.269 501.684 108.792C502.175 109.304 502.788 109.56 503.524 109.56ZM517.983 106.376C517.983 106.707 517.962 107.005 517.919 107.272H511.183C511.236 107.976 511.498 108.541 511.967 108.968C512.436 109.395 513.012 109.608 513.695 109.608C514.676 109.608 515.37 109.197 515.775 108.376H517.743C517.476 109.187 516.991 109.853 516.287 110.376C515.594 110.888 514.73 111.144 513.695 111.144C512.852 111.144 512.095 110.957 511.423 110.584C510.762 110.2 510.239 109.667 509.855 108.984C509.482 108.291 509.295 107.491 509.295 106.584C509.295 105.677 509.476 104.883 509.839 104.2C510.212 103.507 510.73 102.973 511.391 102.6C512.063 102.227 512.831 102.04 513.695 102.04C514.527 102.04 515.268 102.221 515.919 102.584C516.57 102.947 517.076 103.459 517.439 104.12C517.802 104.771 517.983 105.523 517.983 106.376ZM516.079 105.8C516.068 105.128 515.828 104.589 515.359 104.184C514.89 103.779 514.308 103.576 513.615 103.576C512.986 103.576 512.447 103.779 511.999 104.184C511.551 104.579 511.284 105.117 511.199 105.8H516.079ZM522.978 111.144C522.285 111.144 521.661 111.021 521.106 110.776C520.562 110.52 520.13 110.179 519.81 109.752C519.49 109.315 519.319 108.829 519.298 108.296H521.186C521.218 108.669 521.394 108.984 521.714 109.24C522.045 109.485 522.455 109.608 522.946 109.608C523.458 109.608 523.853 109.512 524.13 109.32C524.418 109.117 524.562 108.861 524.562 108.552C524.562 108.221 524.402 107.976 524.082 107.816C523.773 107.656 523.277 107.48 522.594 107.288C521.933 107.107 521.394 106.931 520.978 106.76C520.562 106.589 520.199 106.328 519.89 105.976C519.591 105.624 519.442 105.16 519.442 104.584C519.442 104.115 519.581 103.688 519.858 103.304C520.135 102.909 520.53 102.6 521.042 102.376C521.565 102.152 522.162 102.04 522.834 102.04C523.837 102.04 524.642 102.296 525.25 102.808C525.869 103.309 526.199 103.997 526.242 104.872H524.418C524.386 104.477 524.226 104.163 523.938 103.928C523.65 103.693 523.261 103.576 522.77 103.576C522.29 103.576 521.922 103.667 521.666 103.848C521.41 104.029 521.282 104.269 521.282 104.568C521.282 104.803 521.367 105 521.538 105.16C521.709 105.32 521.917 105.448 522.162 105.544C522.407 105.629 522.77 105.741 523.25 105.88C523.89 106.051 524.413 106.227 524.818 106.408C525.234 106.579 525.591 106.835 525.89 107.176C526.189 107.517 526.343 107.971 526.354 108.536C526.354 109.037 526.215 109.485 525.938 109.88C525.661 110.275 525.266 110.584 524.754 110.808C524.253 111.032 523.661 111.144 522.978 111.144ZM532.773 102.04C533.466 102.04 534.085 102.184 534.629 102.472C535.184 102.76 535.616 103.187 535.925 103.752C536.234 104.317 536.389 105 536.389 105.8V111H534.581V106.072C534.581 105.283 534.384 104.68 533.989 104.264C533.594 103.837 533.056 103.624 532.373 103.624C531.69 103.624 531.146 103.837 530.741 104.264C530.346 104.68 530.149 105.283 530.149 106.072V111H528.325V102.184H530.149V103.192C530.448 102.829 530.826 102.547 531.285 102.344C531.754 102.141 532.25 102.04 532.773 102.04ZM539.004 99.88H540.988L539.308 103.688H538.028L539.004 99.88ZM544.719 103.672V108.552C544.719 108.883 544.793 109.123 544.943 109.272C545.103 109.411 545.369 109.48 545.743 109.48H546.863V111H545.423C544.601 111 543.972 110.808 543.535 110.424C543.097 110.04 542.879 109.416 542.879 108.552V103.672H541.839V102.184H542.879V99.992H544.719V102.184H546.863V103.672H544.719ZM560.78 106.376C560.78 106.707 560.759 107.005 560.716 107.272H553.98C554.033 107.976 554.295 108.541 554.764 108.968C555.233 109.395 555.809 109.608 556.492 109.608C557.473 109.608 558.167 109.197 558.572 108.376H560.54C560.273 109.187 559.788 109.853 559.084 110.376C558.391 110.888 557.527 111.144 556.492 111.144C555.649 111.144 554.892 110.957 554.22 110.584C553.559 110.2 553.036 109.667 552.652 108.984C552.279 108.291 552.092 107.491 552.092 106.584C552.092 105.677 552.273 104.883 552.636 104.2C553.009 103.507 553.527 102.973 554.188 102.6C554.86 102.227 555.628 102.04 556.492 102.04C557.324 102.04 558.065 102.221 558.716 102.584C559.367 102.947 559.873 103.459 560.236 104.12C560.599 104.771 560.78 105.523 560.78 106.376ZM558.876 105.8C558.865 105.128 558.625 104.589 558.156 104.184C557.687 103.779 557.105 103.576 556.412 103.576C555.783 103.576 555.244 103.779 554.796 104.184C554.348 104.579 554.081 105.117 553.996 105.8H558.876ZM566.351 106.536L569.199 111H567.135L565.231 108.008L563.439 111H561.535L564.383 106.664L561.535 102.184H563.599L565.503 105.176L567.295 102.184H569.199L566.351 106.536ZM571.487 101.016C571.157 101.016 570.879 100.904 570.655 100.68C570.431 100.456 570.319 100.179 570.319 99.848C570.319 99.5173 570.431 99.24 570.655 99.016C570.879 98.792 571.157 98.68 571.487 98.68C571.807 98.68 572.079 98.792 572.303 99.016C572.527 99.24 572.639 99.5173 572.639 99.848C572.639 100.179 572.527 100.456 572.303 100.68C572.079 100.904 571.807 101.016 571.487 101.016ZM572.383 102.184V111H570.559V102.184H572.383ZM577.978 111.144C577.285 111.144 576.661 111.021 576.106 110.776C575.562 110.52 575.13 110.179 574.81 109.752C574.49 109.315 574.319 108.829 574.298 108.296H576.186C576.218 108.669 576.394 108.984 576.714 109.24C577.045 109.485 577.455 109.608 577.946 109.608C578.458 109.608 578.853 109.512 579.13 109.32C579.418 109.117 579.562 108.861 579.562 108.552C579.562 108.221 579.402 107.976 579.082 107.816C578.773 107.656 578.277 107.48 577.594 107.288C576.933 107.107 576.394 106.931 575.978 106.76C575.562 106.589 575.199 106.328 574.89 105.976C574.591 105.624 574.442 105.16 574.442 104.584C574.442 104.115 574.581 103.688 574.858 103.304C575.135 102.909 575.53 102.6 576.042 102.376C576.565 102.152 577.162 102.04 577.834 102.04C578.837 102.04 579.642 102.296 580.25 102.808C580.869 103.309 581.199 103.997 581.242 104.872H579.418C579.386 104.477 579.226 104.163 578.938 103.928C578.65 103.693 578.261 103.576 577.77 103.576C577.29 103.576 576.922 103.667 576.666 103.848C576.41 104.029 576.282 104.269 576.282 104.568C576.282 104.803 576.367 105 576.538 105.16C576.709 105.32 576.917 105.448 577.162 105.544C577.407 105.629 577.77 105.741 578.25 105.88C578.89 106.051 579.413 106.227 579.818 106.408C580.234 106.579 580.591 106.835 580.89 107.176C581.189 107.517 581.343 107.971 581.354 108.536C581.354 109.037 581.215 109.485 580.938 109.88C580.661 110.275 580.266 110.584 579.754 110.808C579.253 111.032 578.661 111.144 577.978 111.144ZM585.453 103.672V108.552C585.453 108.883 585.528 109.123 585.677 109.272C585.837 109.411 586.104 109.48 586.477 109.48H587.597V111H586.157C585.336 111 584.706 110.808 584.269 110.424C583.832 110.04 583.613 109.416 583.613 108.552V103.672H582.573V102.184H583.613V99.992H585.453V102.184H587.597V103.672H585.453ZM296.024 135.144C295.192 135.144 294.44 134.957 293.768 134.584C293.096 134.2 292.568 133.667 292.184 132.984C291.8 132.291 291.608 131.491 291.608 130.584C291.608 129.688 291.805 128.893 292.2 128.2C292.595 127.507 293.133 126.973 293.816 126.6C294.499 126.227 295.261 126.04 296.104 126.04C296.947 126.04 297.709 126.227 298.392 126.6C299.075 126.973 299.613 127.507 300.008 128.2C300.403 128.893 300.6 129.688 300.6 130.584C300.6 131.48 300.397 132.275 299.992 132.968C299.587 133.661 299.032 134.2 298.328 134.584C297.635 134.957 296.867 135.144 296.024 135.144ZM296.024 133.56C296.493 133.56 296.931 133.448 297.336 133.224C297.752 133 298.088 132.664 298.344 132.216C298.6 131.768 298.728 131.224 298.728 130.584C298.728 129.944 298.605 129.405 298.36 128.968C298.115 128.52 297.789 128.184 297.384 127.96C296.979 127.736 296.541 127.624 296.072 127.624C295.603 127.624 295.165 127.736 294.76 127.96C294.365 128.184 294.051 128.52 293.816 128.968C293.581 129.405 293.464 129.944 293.464 130.584C293.464 131.533 293.704 132.269 294.184 132.792C294.675 133.304 295.288 133.56 296.024 133.56ZM304.227 127.464C304.494 127.016 304.846 126.669 305.283 126.424C305.731 126.168 306.259 126.04 306.867 126.04V127.928H306.403C305.688 127.928 305.144 128.109 304.771 128.472C304.408 128.835 304.227 129.464 304.227 130.36V135H302.403V126.184H304.227V127.464ZM317.26 126.04C317.932 126.04 318.529 126.184 319.052 126.472C319.585 126.76 320.001 127.187 320.3 127.752C320.609 128.317 320.764 129 320.764 129.8V135H318.956V130.072C318.956 129.283 318.759 128.68 318.364 128.264C317.969 127.837 317.431 127.624 316.748 127.624C316.065 127.624 315.521 127.837 315.116 128.264C314.721 128.68 314.524 129.283 314.524 130.072V135H312.7V123.16H314.524V127.208C314.833 126.835 315.223 126.547 315.692 126.344C316.172 126.141 316.695 126.04 317.26 126.04ZM322.483 130.552C322.483 129.667 322.664 128.883 323.027 128.2C323.4 127.517 323.901 126.989 324.531 126.616C325.171 126.232 325.875 126.04 326.643 126.04C327.336 126.04 327.939 126.179 328.451 126.456C328.973 126.723 329.389 127.059 329.699 127.464V126.184H331.539V135H329.699V133.688C329.389 134.104 328.968 134.451 328.435 134.728C327.901 135.005 327.293 135.144 326.611 135.144C325.853 135.144 325.16 134.952 324.531 134.568C323.901 134.173 323.4 133.629 323.027 132.936C322.664 132.232 322.483 131.437 322.483 130.552ZM329.699 130.584C329.699 129.976 329.571 129.448 329.315 129C329.069 128.552 328.744 128.211 328.339 127.976C327.933 127.741 327.496 127.624 327.027 127.624C326.557 127.624 326.12 127.741 325.715 127.976C325.309 128.2 324.979 128.536 324.723 128.984C324.477 129.421 324.355 129.944 324.355 130.552C324.355 131.16 324.477 131.693 324.723 132.152C324.979 132.611 325.309 132.963 325.715 133.208C326.131 133.443 326.568 133.56 327.027 133.56C327.496 133.56 327.933 133.443 328.339 133.208C328.744 132.973 329.069 132.632 329.315 132.184C329.571 131.725 329.699 131.192 329.699 130.584ZM337.134 135.144C336.441 135.144 335.817 135.021 335.262 134.776C334.718 134.52 334.286 134.179 333.966 133.752C333.646 133.315 333.476 132.829 333.454 132.296H335.342C335.374 132.669 335.55 132.984 335.87 133.24C336.201 133.485 336.612 133.608 337.102 133.608C337.614 133.608 338.009 133.512 338.286 133.32C338.574 133.117 338.718 132.861 338.718 132.552C338.718 132.221 338.558 131.976 338.238 131.816C337.929 131.656 337.433 131.48 336.75 131.288C336.089 131.107 335.55 130.931 335.134 130.76C334.718 130.589 334.356 130.328 334.046 129.976C333.748 129.624 333.598 129.16 333.598 128.584C333.598 128.115 333.737 127.688 334.014 127.304C334.292 126.909 334.686 126.6 335.198 126.376C335.721 126.152 336.318 126.04 336.99 126.04C337.993 126.04 338.798 126.296 339.406 126.808C340.025 127.309 340.356 127.997 340.398 128.872H338.574C338.542 128.477 338.382 128.163 338.094 127.928C337.806 127.693 337.417 127.576 336.926 127.576C336.446 127.576 336.078 127.667 335.822 127.848C335.566 128.029 335.438 128.269 335.438 128.568C335.438 128.803 335.524 129 335.694 129.16C335.865 129.32 336.073 129.448 336.318 129.544C336.564 129.629 336.926 129.741 337.406 129.88C338.046 130.051 338.569 130.227 338.974 130.408C339.39 130.579 339.748 130.835 340.046 131.176C340.345 131.517 340.5 131.971 340.51 132.536C340.51 133.037 340.372 133.485 340.094 133.88C339.817 134.275 339.422 134.584 338.91 134.808C338.409 135.032 337.817 135.144 337.134 135.144ZM348.462 127.496C348.771 127.069 349.192 126.723 349.726 126.456C350.27 126.179 350.872 126.04 351.534 126.04C352.312 126.04 353.016 126.227 353.646 126.6C354.275 126.973 354.771 127.507 355.134 128.2C355.496 128.883 355.678 129.667 355.678 130.552C355.678 131.437 355.496 132.232 355.134 132.936C354.771 133.629 354.27 134.173 353.63 134.568C353 134.952 352.302 135.144 351.534 135.144C350.851 135.144 350.243 135.011 349.71 134.744C349.187 134.477 348.771 134.136 348.462 133.72V135H346.638V123.16H348.462V127.496ZM353.822 130.552C353.822 129.944 353.694 129.421 353.438 128.984C353.192 128.536 352.862 128.2 352.446 127.976C352.04 127.741 351.603 127.624 351.134 127.624C350.675 127.624 350.238 127.741 349.822 127.976C349.416 128.211 349.086 128.552 348.83 129C348.584 129.448 348.462 129.976 348.462 130.584C348.462 131.192 348.584 131.725 348.83 132.184C349.086 132.632 349.416 132.973 349.822 133.208C350.238 133.443 350.675 133.56 351.134 133.56C351.603 133.56 352.04 133.443 352.446 133.208C352.862 132.963 353.192 132.611 353.438 132.152C353.694 131.693 353.822 131.16 353.822 130.552ZM365.561 130.376C365.561 130.707 365.54 131.005 365.497 131.272H358.761C358.815 131.976 359.076 132.541 359.545 132.968C360.015 133.395 360.591 133.608 361.273 133.608C362.255 133.608 362.948 133.197 363.353 132.376H365.321C365.055 133.187 364.569 133.853 363.865 134.376C363.172 134.888 362.308 135.144 361.273 135.144C360.431 135.144 359.673 134.957 359.001 134.584C358.34 134.2 357.817 133.667 357.433 132.984C357.06 132.291 356.873 131.491 356.873 130.584C356.873 129.677 357.055 128.883 357.417 128.2C357.791 127.507 358.308 126.973 358.969 126.6C359.641 126.227 360.409 126.04 361.273 126.04C362.105 126.04 362.847 126.221 363.497 126.584C364.148 126.947 364.655 127.459 365.017 128.12C365.38 128.771 365.561 129.523 365.561 130.376ZM363.657 129.8C363.647 129.128 363.407 128.589 362.937 128.184C362.468 127.779 361.887 127.576 361.193 127.576C360.564 127.576 360.025 127.779 359.577 128.184C359.129 128.579 358.863 129.117 358.777 129.8H363.657ZM375.436 130.376C375.436 130.707 375.415 131.005 375.372 131.272H368.636C368.69 131.976 368.951 132.541 369.42 132.968C369.89 133.395 370.466 133.608 371.148 133.608C372.13 133.608 372.823 133.197 373.228 132.376H375.196C374.93 133.187 374.444 133.853 373.74 134.376C373.047 134.888 372.183 135.144 371.148 135.144C370.306 135.144 369.548 134.957 368.876 134.584C368.215 134.2 367.692 133.667 367.308 132.984C366.935 132.291 366.748 131.491 366.748 130.584C366.748 129.677 366.93 128.883 367.292 128.2C367.666 127.507 368.183 126.973 368.844 126.6C369.516 126.227 370.284 126.04 371.148 126.04C371.98 126.04 372.722 126.221 373.372 126.584C374.023 126.947 374.53 127.459 374.892 128.12C375.255 128.771 375.436 129.523 375.436 130.376ZM373.532 129.8C373.522 129.128 373.282 128.589 372.812 128.184C372.343 127.779 371.762 127.576 371.068 127.576C370.439 127.576 369.9 127.779 369.452 128.184C369.004 128.579 368.738 129.117 368.652 129.8H373.532ZM381.679 126.04C382.373 126.04 382.991 126.184 383.535 126.472C384.09 126.76 384.522 127.187 384.831 127.752C385.141 128.317 385.295 129 385.295 129.8V135H383.487V130.072C383.487 129.283 383.29 128.68 382.895 128.264C382.501 127.837 381.962 127.624 381.279 127.624C380.597 127.624 380.053 127.837 379.647 128.264C379.253 128.68 379.055 129.283 379.055 130.072V135H377.231V126.184H379.055V127.192C379.354 126.829 379.733 126.547 380.191 126.344C380.661 126.141 381.157 126.04 381.679 126.04ZM391.17 130.552C391.17 129.667 391.351 128.883 391.714 128.2C392.087 127.517 392.589 126.989 393.218 126.616C393.858 126.232 394.567 126.04 395.346 126.04C395.922 126.04 396.487 126.168 397.042 126.424C397.607 126.669 398.055 127 398.386 127.416V123.16H400.226V135H398.386V133.672C398.087 134.099 397.671 134.451 397.138 134.728C396.615 135.005 396.013 135.144 395.33 135.144C394.562 135.144 393.858 134.952 393.218 134.568C392.589 134.173 392.087 133.629 391.714 132.936C391.351 132.232 391.17 131.437 391.17 130.552ZM398.386 130.584C398.386 129.976 398.258 129.448 398.002 129C397.757 128.552 397.431 128.211 397.026 127.976C396.621 127.741 396.183 127.624 395.714 127.624C395.245 127.624 394.807 127.741 394.402 127.976C393.997 128.2 393.666 128.536 393.41 128.984C393.165 129.421 393.042 129.944 393.042 130.552C393.042 131.16 393.165 131.693 393.41 132.152C393.666 132.611 393.997 132.963 394.402 133.208C394.818 133.443 395.255 133.56 395.714 133.56C396.183 133.56 396.621 133.443 397.026 133.208C397.431 132.973 397.757 132.632 398.002 132.184C398.258 131.725 398.386 131.192 398.386 130.584ZM410.702 130.376C410.702 130.707 410.681 131.005 410.638 131.272H403.902C403.955 131.976 404.217 132.541 404.686 132.968C405.155 133.395 405.731 133.608 406.414 133.608C407.395 133.608 408.089 133.197 408.494 132.376H410.462C410.195 133.187 409.71 133.853 409.006 134.376C408.313 134.888 407.449 135.144 406.414 135.144C405.571 135.144 404.814 134.957 404.142 134.584C403.481 134.2 402.958 133.667 402.574 132.984C402.201 132.291 402.014 131.491 402.014 130.584C402.014 129.677 402.195 128.883 402.558 128.2C402.931 127.507 403.449 126.973 404.11 126.6C404.782 126.227 405.55 126.04 406.414 126.04C407.246 126.04 407.987 126.221 408.638 126.584C409.289 126.947 409.795 127.459 410.158 128.12C410.521 128.771 410.702 129.523 410.702 130.376ZM408.798 129.8C408.787 129.128 408.547 128.589 408.078 128.184C407.609 127.779 407.027 127.576 406.334 127.576C405.705 127.576 405.166 127.779 404.718 128.184C404.27 128.579 404.003 129.117 403.918 129.8H408.798ZM414.321 123.16V135H412.497V123.16H414.321ZM424.796 130.376C424.796 130.707 424.774 131.005 424.732 131.272H417.996C418.049 131.976 418.31 132.541 418.78 132.968C419.249 133.395 419.825 133.608 420.508 133.608C421.489 133.608 422.182 133.197 422.588 132.376H424.556C424.289 133.187 423.804 133.853 423.1 134.376C422.406 134.888 421.542 135.144 420.508 135.144C419.665 135.144 418.908 134.957 418.236 134.584C417.574 134.2 417.052 133.667 416.668 132.984C416.294 132.291 416.108 131.491 416.108 130.584C416.108 129.677 416.289 128.883 416.652 128.2C417.025 127.507 417.542 126.973 418.204 126.6C418.876 126.227 419.644 126.04 420.508 126.04C421.34 126.04 422.081 126.221 422.732 126.584C423.382 126.947 423.889 127.459 424.252 128.12C424.614 128.771 424.796 129.523 424.796 130.376ZM422.892 129.8C422.881 129.128 422.641 128.589 422.172 128.184C421.702 127.779 421.121 127.576 420.428 127.576C419.798 127.576 419.26 127.779 418.812 128.184C418.364 128.579 418.097 129.117 418.012 129.8H422.892ZM428.719 127.672V132.552C428.719 132.883 428.793 133.123 428.943 133.272C429.103 133.411 429.369 133.48 429.743 133.48H430.863V135H429.423C428.601 135 427.972 134.808 427.535 134.424C427.097 134.04 426.879 133.416 426.879 132.552V127.672H425.839V126.184H426.879V123.992H428.719V126.184H430.863V127.672H428.719ZM440.624 130.376C440.624 130.707 440.602 131.005 440.56 131.272H433.824C433.877 131.976 434.138 132.541 434.608 132.968C435.077 133.395 435.653 133.608 436.336 133.608C437.317 133.608 438.01 133.197 438.416 132.376H440.384C440.117 133.187 439.632 133.853 438.928 134.376C438.234 134.888 437.37 135.144 436.336 135.144C435.493 135.144 434.736 134.957 434.064 134.584C433.402 134.2 432.88 133.667 432.496 132.984C432.122 132.291 431.936 131.491 431.936 130.584C431.936 129.677 432.117 128.883 432.48 128.2C432.853 127.507 433.37 126.973 434.032 126.6C434.704 126.227 435.472 126.04 436.336 126.04C437.168 126.04 437.909 126.221 438.56 126.584C439.21 126.947 439.717 127.459 440.08 128.12C440.442 128.771 440.624 129.523 440.624 130.376ZM438.72 129.8C438.709 129.128 438.469 128.589 438 128.184C437.53 127.779 436.949 127.576 436.256 127.576C435.626 127.576 435.088 127.779 434.64 128.184C434.192 128.579 433.925 129.117 433.84 129.8H438.72ZM441.811 130.552C441.811 129.667 441.992 128.883 442.355 128.2C442.728 127.517 443.229 126.989 443.859 126.616C444.499 126.232 445.208 126.04 445.987 126.04C446.563 126.04 447.128 126.168 447.683 126.424C448.248 126.669 448.696 127 449.027 127.416V123.16H450.867V135H449.027V133.672C448.728 134.099 448.312 134.451 447.779 134.728C447.256 135.005 446.653 135.144 445.971 135.144C445.203 135.144 444.499 134.952 443.859 134.568C443.229 134.173 442.728 133.629 442.355 132.936C441.992 132.232 441.811 131.437 441.811 130.552ZM449.027 130.584C449.027 129.976 448.899 129.448 448.643 129C448.397 128.552 448.072 128.211 447.667 127.976C447.261 127.741 446.824 127.624 446.355 127.624C445.885 127.624 445.448 127.741 445.043 127.976C444.637 128.2 444.307 128.536 444.051 128.984C443.805 129.421 443.683 129.944 443.683 130.552C443.683 131.16 443.805 131.693 444.051 132.152C444.307 132.611 444.637 132.963 445.043 133.208C445.459 133.443 445.896 133.56 446.355 133.56C446.824 133.56 447.261 133.443 447.667 133.208C448.072 132.973 448.397 132.632 448.643 132.184C448.899 131.725 449.027 131.192 449.027 130.584Z" fill="#FF6969"/>
<path d="M6.656 126.92V103.24L44.8 48.84H75.392V102.344H84.608V126.92H75.392V141H46.72V126.92H6.656ZM49.024 81.224L35.2 102.344H49.024V81.224ZM94.221 92.872C94.221 78.1093 97.3357 66.504 103.565 58.056C109.88 49.608 119.565 45.384 132.621 45.384C145.592 45.384 155.234 49.6507 161.549 58.184C167.864 66.632 171.021 78.1947 171.021 92.872C171.021 107.635 167.864 119.283 161.549 127.816C155.234 136.264 145.592 140.488 132.621 140.488C119.565 140.488 109.88 136.264 103.565 127.816C97.3357 119.283 94.221 107.635 94.221 92.872ZM142.989 92.872C142.989 86.0453 142.306 80.9253 140.941 77.512C139.576 74.0133 136.802 72.264 132.621 72.264C128.354 72.264 125.538 74.0133 124.173 77.512C122.808 80.9253 122.125 86.0453 122.125 92.872C122.125 99.784 122.808 104.989 124.173 108.488C125.538 111.901 128.354 113.608 132.621 113.608C136.802 113.608 139.576 111.901 140.941 108.488C142.306 104.989 142.989 99.784 142.989 92.872ZM181.531 126.92V103.24L219.675 48.84H250.267V102.344H259.483V126.92H250.267V141H221.595V126.92H181.531ZM223.899 81.224L210.075 102.344H223.899V81.224Z" fill="#FF6969"/>
</svg>
