<svg width="598" height="192" viewBox="0 0 598 192" fill="none" xmlns="http://www.w3.org/2000/svg">
<path d="M287.584 74.168C286.352 74.168 285.248 73.968 284.272 73.568C283.296 73.168 282.512 72.576 281.92 71.792C281.344 71.008 281.04 70.064 281.008 68.96H285.376C285.44 69.584 285.656 70.064 286.024 70.4C286.392 70.72 286.872 70.88 287.464 70.88C288.072 70.88 288.552 70.744 288.904 70.472C289.256 70.184 289.432 69.792 289.432 69.296C289.432 68.88 289.288 68.536 289 68.264C288.728 67.992 288.384 67.768 287.968 67.592C287.568 67.416 286.992 67.216 286.24 66.992C285.152 66.656 284.264 66.32 283.576 65.984C282.888 65.648 282.296 65.152 281.8 64.496C281.304 63.84 281.056 62.984 281.056 61.928C281.056 60.36 281.624 59.136 282.76 58.256C283.896 57.36 285.376 56.912 287.2 56.912C289.056 56.912 290.552 57.36 291.688 58.256C292.824 59.136 293.432 60.368 293.512 61.952H289.072C289.04 61.408 288.84 60.984 288.472 60.68C288.104 60.36 287.632 60.2 287.056 60.2C286.56 60.2 286.16 60.336 285.856 60.608C285.552 60.864 285.4 61.24 285.4 61.736C285.4 62.28 285.656 62.704 286.168 63.008C286.68 63.312 287.48 63.64 288.568 63.992C289.656 64.36 290.536 64.712 291.208 65.048C291.896 65.384 292.488 65.872 292.984 66.512C293.48 67.152 293.728 67.976 293.728 68.984C293.728 69.944 293.48 70.816 292.984 71.6C292.504 72.384 291.8 73.008 290.872 73.472C289.944 73.936 288.848 74.168 287.584 74.168ZM302.35 74.192C301.038 74.192 299.854 73.912 298.798 73.352C297.758 72.792 296.934 71.992 296.326 70.952C295.734 69.912 295.438 68.696 295.438 67.304C295.438 65.928 295.742 64.72 296.35 63.68C296.958 62.624 297.79 61.816 298.846 61.256C299.902 60.696 301.086 60.416 302.398 60.416C303.71 60.416 304.894 60.696 305.95 61.256C307.006 61.816 307.838 62.624 308.446 63.68C309.054 64.72 309.358 65.928 309.358 67.304C309.358 68.68 309.046 69.896 308.422 70.952C307.814 71.992 306.974 72.792 305.902 73.352C304.846 73.912 303.662 74.192 302.35 74.192ZM302.35 70.64C303.134 70.64 303.798 70.352 304.342 69.776C304.902 69.2 305.182 68.376 305.182 67.304C305.182 66.232 304.91 65.408 304.366 64.832C303.838 64.256 303.182 63.968 302.398 63.968C301.598 63.968 300.934 64.256 300.406 64.832C299.878 65.392 299.614 66.216 299.614 67.304C299.614 68.376 299.87 69.2 300.382 69.776C300.91 70.352 301.566 70.64 302.35 70.64ZM315.639 62.84C316.119 62.104 316.719 61.528 317.439 61.112C318.159 60.68 318.959 60.464 319.839 60.464V64.808H318.711C317.687 64.808 316.919 65.032 316.407 65.48C315.895 65.912 315.639 66.68 315.639 67.784V74H311.535V60.608H315.639V62.84ZM325.905 62.84C326.385 62.104 326.985 61.528 327.705 61.112C328.425 60.68 329.225 60.464 330.105 60.464V64.808H328.977C327.953 64.808 327.185 65.032 326.673 65.48C326.161 65.912 325.905 66.68 325.905 67.784V74H321.801V60.608H325.905V62.84ZM345.746 60.608L337.346 80.36H332.93L336.002 73.544L330.554 60.608H335.138L338.234 68.984L341.306 60.608H345.746ZM352.63 56.552L352.15 68.048H348.67L348.19 56.552H352.63ZM350.47 74.192C349.75 74.192 349.158 73.984 348.694 73.568C348.246 73.136 348.022 72.608 348.022 71.984C348.022 71.344 348.246 70.808 348.694 70.376C349.158 69.944 349.75 69.728 350.47 69.728C351.174 69.728 351.75 69.944 352.198 70.376C352.662 70.808 352.894 71.344 352.894 71.984C352.894 72.608 352.662 73.136 352.198 73.568C351.75 73.984 351.174 74.192 350.47 74.192Z" fill="#FF6969"/>
<path d="M288.384 101.88V103.368H285.424V113H283.6V103.368H280.624V101.88H288.384ZM294.791 104.04C295.463 104.04 296.061 104.184 296.583 104.472C297.117 104.76 297.533 105.187 297.831 105.752C298.141 106.317 298.295 107 298.295 107.8V113H296.487V108.072C296.487 107.283 296.29 106.68 295.895 106.264C295.501 105.837 294.962 105.624 294.279 105.624C293.597 105.624 293.053 105.837 292.647 106.264C292.253 106.68 292.055 107.283 292.055 108.072V113H290.231V101.16H292.055V105.208C292.365 104.835 292.754 104.547 293.223 104.344C293.703 104.141 294.226 104.04 294.791 104.04ZM308.702 108.376C308.702 108.707 308.681 109.005 308.638 109.272H301.902C301.955 109.976 302.217 110.541 302.686 110.968C303.155 111.395 303.731 111.608 304.414 111.608C305.395 111.608 306.089 111.197 306.494 110.376H308.462C308.195 111.187 307.71 111.853 307.006 112.376C306.313 112.888 305.449 113.144 304.414 113.144C303.571 113.144 302.814 112.957 302.142 112.584C301.481 112.2 300.958 111.667 300.574 110.984C300.201 110.291 300.014 109.491 300.014 108.584C300.014 107.677 300.195 106.883 300.558 106.2C300.931 105.507 301.449 104.973 302.11 104.6C302.782 104.227 303.55 104.04 304.414 104.04C305.246 104.04 305.987 104.221 306.638 104.584C307.289 104.947 307.795 105.459 308.158 106.12C308.521 106.771 308.702 107.523 308.702 108.376ZM306.798 107.8C306.787 107.128 306.547 106.589 306.078 106.184C305.609 105.779 305.027 105.576 304.334 105.576C303.705 105.576 303.166 105.779 302.718 106.184C302.27 106.579 302.003 107.117 301.918 107.8H306.798ZM312.321 105.464C312.588 105.016 312.94 104.669 313.377 104.424C313.825 104.168 314.353 104.04 314.961 104.04V105.928H314.497C313.782 105.928 313.238 106.109 312.865 106.472C312.502 106.835 312.321 107.464 312.321 108.36V113H310.497V104.184H312.321V105.464ZM324.718 108.376C324.718 108.707 324.696 109.005 324.654 109.272H317.918C317.971 109.976 318.232 110.541 318.702 110.968C319.171 111.395 319.747 111.608 320.43 111.608C321.411 111.608 322.104 111.197 322.51 110.376H324.477C324.211 111.187 323.726 111.853 323.022 112.376C322.328 112.888 321.464 113.144 320.43 113.144C319.587 113.144 318.83 112.957 318.158 112.584C317.496 112.2 316.974 111.667 316.59 110.984C316.216 110.291 316.03 109.491 316.03 108.584C316.03 107.677 316.211 106.883 316.574 106.2C316.947 105.507 317.464 104.973 318.126 104.6C318.798 104.227 319.566 104.04 320.43 104.04C321.262 104.04 322.003 104.221 322.654 104.584C323.304 104.947 323.811 105.459 324.174 106.12C324.536 106.771 324.718 107.523 324.718 108.376ZM322.814 107.8C322.803 107.128 322.563 106.589 322.094 106.184C321.624 105.779 321.043 105.576 320.35 105.576C319.72 105.576 319.182 105.779 318.734 106.184C318.286 106.579 318.019 107.117 317.934 107.8H322.814ZM342.509 104.184L339.773 113H337.853L336.077 106.488L334.301 113H332.381L329.629 104.184H331.485L333.325 111.272L335.197 104.184H337.101L338.893 111.24L340.717 104.184H342.509ZM343.264 108.552C343.264 107.667 343.445 106.883 343.808 106.2C344.181 105.517 344.683 104.989 345.312 104.616C345.952 104.232 346.656 104.04 347.424 104.04C348.117 104.04 348.72 104.179 349.232 104.456C349.755 104.723 350.171 105.059 350.48 105.464V104.184H352.32V113H350.48V111.688C350.171 112.104 349.749 112.451 349.216 112.728C348.683 113.005 348.075 113.144 347.392 113.144C346.635 113.144 345.941 112.952 345.312 112.568C344.683 112.173 344.181 111.629 343.808 110.936C343.445 110.232 343.264 109.437 343.264 108.552ZM350.48 108.584C350.48 107.976 350.352 107.448 350.096 107C349.851 106.552 349.525 106.211 349.12 105.976C348.715 105.741 348.277 105.624 347.808 105.624C347.339 105.624 346.901 105.741 346.496 105.976C346.091 106.2 345.76 106.536 345.504 106.984C345.259 107.421 345.136 107.944 345.136 108.552C345.136 109.16 345.259 109.693 345.504 110.152C345.76 110.611 346.091 110.963 346.496 111.208C346.912 111.443 347.349 111.56 347.808 111.56C348.277 111.56 348.715 111.443 349.12 111.208C349.525 110.973 349.851 110.632 350.096 110.184C350.352 109.725 350.48 109.192 350.48 108.584ZM357.916 113.144C357.222 113.144 356.598 113.021 356.044 112.776C355.5 112.52 355.068 112.179 354.748 111.752C354.428 111.315 354.257 110.829 354.236 110.296H356.124C356.156 110.669 356.332 110.984 356.652 111.24C356.982 111.485 357.393 111.608 357.884 111.608C358.396 111.608 358.79 111.512 359.068 111.32C359.356 111.117 359.5 110.861 359.5 110.552C359.5 110.221 359.34 109.976 359.02 109.816C358.71 109.656 358.214 109.48 357.532 109.288C356.87 109.107 356.332 108.931 355.916 108.76C355.5 108.589 355.137 108.328 354.828 107.976C354.529 107.624 354.38 107.16 354.38 106.584C354.38 106.115 354.518 105.688 354.796 105.304C355.073 104.909 355.468 104.6 355.98 104.376C356.502 104.152 357.1 104.04 357.772 104.04C358.774 104.04 359.58 104.296 360.188 104.808C360.806 105.309 361.137 105.997 361.18 106.872H359.356C359.324 106.477 359.164 106.163 358.876 105.928C358.588 105.693 358.198 105.576 357.708 105.576C357.228 105.576 356.86 105.667 356.604 105.848C356.348 106.029 356.22 106.269 356.22 106.568C356.22 106.803 356.305 107 356.476 107.16C356.646 107.32 356.854 107.448 357.1 107.544C357.345 107.629 357.708 107.741 358.188 107.88C358.828 108.051 359.35 108.227 359.756 108.408C360.172 108.579 360.529 108.835 360.828 109.176C361.126 109.517 361.281 109.971 361.292 110.536C361.292 111.037 361.153 111.485 360.876 111.88C360.598 112.275 360.204 112.584 359.692 112.808C359.19 113.032 358.598 113.144 357.916 113.144ZM366.811 108.552C366.811 107.667 366.992 106.883 367.355 106.2C367.728 105.517 368.229 104.989 368.859 104.616C369.499 104.232 370.203 104.04 370.971 104.04C371.664 104.04 372.267 104.179 372.779 104.456C373.301 104.723 373.717 105.059 374.027 105.464V104.184H375.867V113H374.027V111.688C373.717 112.104 373.296 112.451 372.763 112.728C372.229 113.005 371.621 113.144 370.939 113.144C370.181 113.144 369.488 112.952 368.859 112.568C368.229 112.173 367.728 111.629 367.355 110.936C366.992 110.232 366.811 109.437 366.811 108.552ZM374.027 108.584C374.027 107.976 373.899 107.448 373.643 107C373.397 106.552 373.072 106.211 372.667 105.976C372.261 105.741 371.824 105.624 371.355 105.624C370.885 105.624 370.448 105.741 370.043 105.976C369.637 106.2 369.307 106.536 369.051 106.984C368.805 107.421 368.683 107.944 368.683 108.552C368.683 109.16 368.805 109.693 369.051 110.152C369.307 110.611 369.637 110.963 370.043 111.208C370.459 111.443 370.896 111.56 371.355 111.56C371.824 111.56 372.261 111.443 372.667 111.208C373.072 110.973 373.397 110.632 373.643 110.184C373.899 109.725 374.027 109.192 374.027 108.584ZM382.711 104.04C383.404 104.04 384.023 104.184 384.567 104.472C385.121 104.76 385.553 105.187 385.863 105.752C386.172 106.317 386.327 107 386.327 107.8V113H384.519V108.072C384.519 107.283 384.321 106.68 383.927 106.264C383.532 105.837 382.993 105.624 382.311 105.624C381.628 105.624 381.084 105.837 380.679 106.264C380.284 106.68 380.087 107.283 380.087 108.072V113H378.263V104.184H380.087V105.192C380.385 104.829 380.764 104.547 381.223 104.344C381.692 104.141 382.188 104.04 382.711 104.04ZM400.889 108.376C400.889 108.707 400.868 109.005 400.825 109.272H394.089C394.143 109.976 394.404 110.541 394.873 110.968C395.343 111.395 395.919 111.608 396.601 111.608C397.583 111.608 398.276 111.197 398.681 110.376H400.649C400.383 111.187 399.897 111.853 399.193 112.376C398.5 112.888 397.636 113.144 396.601 113.144C395.759 113.144 395.001 112.957 394.329 112.584C393.668 112.2 393.145 111.667 392.761 110.984C392.388 110.291 392.201 109.491 392.201 108.584C392.201 107.677 392.383 106.883 392.745 106.2C393.119 105.507 393.636 104.973 394.297 104.6C394.969 104.227 395.737 104.04 396.601 104.04C397.433 104.04 398.175 104.221 398.825 104.584C399.476 104.947 399.983 105.459 400.345 106.12C400.708 106.771 400.889 107.523 400.889 108.376ZM398.985 107.8C398.975 107.128 398.735 106.589 398.265 106.184C397.796 105.779 397.215 105.576 396.521 105.576C395.892 105.576 395.353 105.779 394.905 106.184C394.457 106.579 394.191 107.117 394.105 107.8H398.985ZM404.508 105.464C404.775 105.016 405.127 104.669 405.564 104.424C406.012 104.168 406.54 104.04 407.148 104.04V105.928H406.684C405.97 105.928 405.426 106.109 405.052 106.472C404.69 106.835 404.508 107.464 404.508 108.36V113H402.684V104.184H404.508V105.464ZM410.649 105.464C410.916 105.016 411.268 104.669 411.705 104.424C412.153 104.168 412.681 104.04 413.289 104.04V105.928H412.825C412.11 105.928 411.566 106.109 411.193 106.472C410.83 106.835 410.649 107.464 410.649 108.36V113H408.825V104.184H410.649V105.464ZM418.79 113.144C417.958 113.144 417.206 112.957 416.534 112.584C415.862 112.2 415.334 111.667 414.95 110.984C414.566 110.291 414.374 109.491 414.374 108.584C414.374 107.688 414.571 106.893 414.966 106.2C415.36 105.507 415.899 104.973 416.582 104.6C417.264 104.227 418.027 104.04 418.87 104.04C419.712 104.04 420.475 104.227 421.158 104.6C421.84 104.973 422.379 105.507 422.774 106.2C423.168 106.893 423.366 107.688 423.366 108.584C423.366 109.48 423.163 110.275 422.758 110.968C422.352 111.661 421.798 112.2 421.094 112.584C420.4 112.957 419.632 113.144 418.79 113.144ZM418.79 111.56C419.259 111.56 419.696 111.448 420.102 111.224C420.518 111 420.854 110.664 421.11 110.216C421.366 109.768 421.494 109.224 421.494 108.584C421.494 107.944 421.371 107.405 421.126 106.968C420.88 106.52 420.555 106.184 420.15 105.96C419.744 105.736 419.307 105.624 418.838 105.624C418.368 105.624 417.931 105.736 417.526 105.96C417.131 106.184 416.816 106.52 416.582 106.968C416.347 107.405 416.23 107.944 416.23 108.584C416.23 109.533 416.47 110.269 416.95 110.792C417.44 111.304 418.054 111.56 418.79 111.56ZM426.993 105.464C427.259 105.016 427.611 104.669 428.049 104.424C428.497 104.168 429.025 104.04 429.633 104.04V105.928H429.169C428.454 105.928 427.91 106.109 427.537 106.472C427.174 106.835 426.993 107.464 426.993 108.36V113H425.169V104.184H426.993V105.464ZM439.162 105.672H437.53V113H435.69V105.672H434.65V104.184H435.69V103.56C435.69 102.547 435.956 101.811 436.49 101.352C437.034 100.883 437.882 100.648 439.034 100.648V102.168C438.479 102.168 438.09 102.275 437.866 102.488C437.642 102.691 437.53 103.048 437.53 103.56V104.184H439.162V105.672ZM448.858 108.376C448.858 108.707 448.837 109.005 448.794 109.272H442.058C442.111 109.976 442.373 110.541 442.842 110.968C443.311 111.395 443.887 111.608 444.57 111.608C445.551 111.608 446.245 111.197 446.65 110.376H448.618C448.351 111.187 447.866 111.853 447.162 112.376C446.469 112.888 445.605 113.144 444.57 113.144C443.727 113.144 442.97 112.957 442.298 112.584C441.637 112.2 441.114 111.667 440.73 110.984C440.357 110.291 440.17 109.491 440.17 108.584C440.17 107.677 440.351 106.883 440.714 106.2C441.087 105.507 441.605 104.973 442.266 104.6C442.938 104.227 443.706 104.04 444.57 104.04C445.402 104.04 446.143 104.221 446.794 104.584C447.445 104.947 447.951 105.459 448.314 106.12C448.677 106.771 448.858 107.523 448.858 108.376ZM446.954 107.8C446.943 107.128 446.703 106.589 446.234 106.184C445.765 105.779 445.183 105.576 444.49 105.576C443.861 105.576 443.322 105.779 442.874 106.184C442.426 106.579 442.159 107.117 442.074 107.8H446.954ZM452.781 105.672V110.552C452.781 110.883 452.856 111.123 453.005 111.272C453.165 111.411 453.432 111.48 453.805 111.48H454.925V113H453.485C452.664 113 452.034 112.808 451.597 112.424C451.16 112.04 450.941 111.416 450.941 110.552V105.672H449.901V104.184H450.941V101.992H452.781V104.184H454.925V105.672H452.781ZM455.998 108.584C455.998 107.677 456.18 106.883 456.542 106.2C456.916 105.507 457.428 104.973 458.078 104.6C458.729 104.227 459.476 104.04 460.318 104.04C461.385 104.04 462.265 104.296 462.958 104.808C463.662 105.309 464.137 106.029 464.382 106.968H462.414C462.254 106.531 461.998 106.189 461.646 105.944C461.294 105.699 460.852 105.576 460.318 105.576C459.572 105.576 458.974 105.843 458.526 106.376C458.089 106.899 457.87 107.635 457.87 108.584C457.87 109.533 458.089 110.275 458.526 110.808C458.974 111.341 459.572 111.608 460.318 111.608C461.374 111.608 462.073 111.144 462.414 110.216H464.382C464.126 111.112 463.646 111.827 462.942 112.36C462.238 112.883 461.364 113.144 460.318 113.144C459.476 113.144 458.729 112.957 458.078 112.584C457.428 112.2 456.916 111.667 456.542 110.984C456.18 110.291 455.998 109.491 455.998 108.584ZM470.76 104.04C471.432 104.04 472.029 104.184 472.552 104.472C473.085 104.76 473.501 105.187 473.8 105.752C474.109 106.317 474.264 107 474.264 107.8V113H472.456V108.072C472.456 107.283 472.259 106.68 471.864 106.264C471.469 105.837 470.931 105.624 470.248 105.624C469.565 105.624 469.021 105.837 468.616 106.264C468.221 106.68 468.024 107.283 468.024 108.072V113H466.2V101.16H468.024V105.208C468.333 104.835 468.723 104.547 469.192 104.344C469.672 104.141 470.195 104.04 470.76 104.04ZM477.519 103.016C477.188 103.016 476.911 102.904 476.687 102.68C476.463 102.456 476.351 102.179 476.351 101.848C476.351 101.517 476.463 101.24 476.687 101.016C476.911 100.792 477.188 100.68 477.519 100.68C477.839 100.68 478.111 100.792 478.335 101.016C478.559 101.24 478.671 101.517 478.671 101.848C478.671 102.179 478.559 102.456 478.335 102.68C478.111 102.904 477.839 103.016 477.519 103.016ZM478.415 104.184V113H476.591V104.184H478.415ZM485.257 104.04C485.951 104.04 486.569 104.184 487.113 104.472C487.668 104.76 488.1 105.187 488.409 105.752C488.719 106.317 488.873 107 488.873 107.8V113H487.065V108.072C487.065 107.283 486.868 106.68 486.473 106.264C486.079 105.837 485.54 105.624 484.857 105.624C484.175 105.624 483.631 105.837 483.225 106.264C482.831 106.68 482.633 107.283 482.633 108.072V113H480.809V104.184H482.633V105.192C482.932 104.829 483.311 104.547 483.769 104.344C484.239 104.141 484.735 104.04 485.257 104.04ZM494.752 104.04C495.435 104.04 496.037 104.179 496.56 104.456C497.093 104.723 497.509 105.059 497.808 105.464V104.184H499.648V113.144C499.648 113.955 499.477 114.675 499.136 115.304C498.795 115.944 498.299 116.445 497.648 116.808C497.008 117.171 496.24 117.352 495.344 117.352C494.149 117.352 493.157 117.069 492.368 116.504C491.579 115.949 491.131 115.192 491.024 114.232H492.832C492.971 114.691 493.264 115.059 493.712 115.336C494.171 115.624 494.715 115.768 495.344 115.768C496.08 115.768 496.672 115.544 497.12 115.096C497.579 114.648 497.808 113.997 497.808 113.144V111.672C497.499 112.088 497.077 112.44 496.544 112.728C496.021 113.005 495.424 113.144 494.752 113.144C493.984 113.144 493.28 112.952 492.64 112.568C492.011 112.173 491.509 111.629 491.136 110.936C490.773 110.232 490.592 109.437 490.592 108.552C490.592 107.667 490.773 106.883 491.136 106.2C491.509 105.517 492.011 104.989 492.64 104.616C493.28 104.232 493.984 104.04 494.752 104.04ZM497.808 108.584C497.808 107.976 497.68 107.448 497.424 107C497.179 106.552 496.853 106.211 496.448 105.976C496.043 105.741 495.605 105.624 495.136 105.624C494.667 105.624 494.229 105.741 493.824 105.976C493.419 106.2 493.088 106.536 492.832 106.984C492.587 107.421 492.464 107.944 492.464 108.552C492.464 109.16 492.587 109.693 492.832 110.152C493.088 110.611 493.419 110.963 493.824 111.208C494.24 111.443 494.677 111.56 495.136 111.56C495.605 111.56 496.043 111.443 496.448 111.208C496.853 110.973 497.179 110.632 497.424 110.184C497.68 109.725 497.808 109.192 497.808 108.584ZM508.328 105.672V110.552C508.328 110.883 508.403 111.123 508.552 111.272C508.712 111.411 508.979 111.48 509.352 111.48H510.472V113H509.032C508.211 113 507.581 112.808 507.144 112.424C506.707 112.04 506.488 111.416 506.488 110.552V105.672H505.448V104.184H506.488V101.992H508.328V104.184H510.472V105.672H508.328ZM516.713 104.04C517.385 104.04 517.982 104.184 518.505 104.472C519.038 104.76 519.454 105.187 519.753 105.752C520.062 106.317 520.217 107 520.217 107.8V113H518.409V108.072C518.409 107.283 518.212 106.68 517.817 106.264C517.422 105.837 516.884 105.624 516.201 105.624C515.518 105.624 514.974 105.837 514.569 106.264C514.174 106.68 513.977 107.283 513.977 108.072V113H512.153V101.16H513.977V105.208C514.286 104.835 514.676 104.547 515.145 104.344C515.625 104.141 516.148 104.04 516.713 104.04ZM530.624 108.376C530.624 108.707 530.602 109.005 530.56 109.272H523.824C523.877 109.976 524.138 110.541 524.608 110.968C525.077 111.395 525.653 111.608 526.336 111.608C527.317 111.608 528.01 111.197 528.416 110.376H530.384C530.117 111.187 529.632 111.853 528.928 112.376C528.234 112.888 527.37 113.144 526.336 113.144C525.493 113.144 524.736 112.957 524.064 112.584C523.402 112.2 522.88 111.667 522.496 110.984C522.122 110.291 521.936 109.491 521.936 108.584C521.936 107.677 522.117 106.883 522.48 106.2C522.853 105.507 523.37 104.973 524.032 104.6C524.704 104.227 525.472 104.04 526.336 104.04C527.168 104.04 527.909 104.221 528.56 104.584C529.21 104.947 529.717 105.459 530.08 106.12C530.442 106.771 530.624 107.523 530.624 108.376ZM528.72 107.8C528.709 107.128 528.469 106.589 528 106.184C527.53 105.779 526.949 105.576 526.256 105.576C525.626 105.576 525.088 105.779 524.64 106.184C524.192 106.579 523.925 107.117 523.84 107.8H528.72ZM535.967 108.552C535.967 107.667 536.148 106.883 536.511 106.2C536.884 105.517 537.386 104.989 538.015 104.616C538.655 104.232 539.364 104.04 540.143 104.04C540.719 104.04 541.284 104.168 541.839 104.424C542.404 104.669 542.852 105 543.183 105.416V101.16H545.023V113H543.183V111.672C542.884 112.099 542.468 112.451 541.935 112.728C541.412 113.005 540.81 113.144 540.127 113.144C539.359 113.144 538.655 112.952 538.015 112.568C537.386 112.173 536.884 111.629 536.511 110.936C536.148 110.232 535.967 109.437 535.967 108.552ZM543.183 108.584C543.183 107.976 543.055 107.448 542.799 107C542.554 106.552 542.228 106.211 541.823 105.976C541.418 105.741 540.98 105.624 540.511 105.624C540.042 105.624 539.604 105.741 539.199 105.976C538.794 106.2 538.463 106.536 538.207 106.984C537.962 107.421 537.839 107.944 537.839 108.552C537.839 109.16 537.962 109.693 538.207 110.152C538.463 110.611 538.794 110.963 539.199 111.208C539.615 111.443 540.052 111.56 540.511 111.56C540.98 111.56 541.418 111.443 541.823 111.208C542.228 110.973 542.554 110.632 542.799 110.184C543.055 109.725 543.183 109.192 543.183 108.584ZM546.811 108.552C546.811 107.667 546.992 106.883 547.355 106.2C547.728 105.517 548.229 104.989 548.859 104.616C549.499 104.232 550.203 104.04 550.971 104.04C551.664 104.04 552.267 104.179 552.779 104.456C553.301 104.723 553.717 105.059 554.027 105.464V104.184H555.867V113H554.027V111.688C553.717 112.104 553.296 112.451 552.763 112.728C552.229 113.005 551.621 113.144 550.939 113.144C550.181 113.144 549.488 112.952 548.859 112.568C548.229 112.173 547.728 111.629 547.355 110.936C546.992 110.232 546.811 109.437 546.811 108.552ZM554.027 108.584C554.027 107.976 553.899 107.448 553.643 107C553.397 106.552 553.072 106.211 552.667 105.976C552.261 105.741 551.824 105.624 551.355 105.624C550.885 105.624 550.448 105.741 550.043 105.976C549.637 106.2 549.307 106.536 549.051 106.984C548.805 107.421 548.683 107.944 548.683 108.552C548.683 109.16 548.805 109.693 549.051 110.152C549.307 110.611 549.637 110.963 550.043 111.208C550.459 111.443 550.896 111.56 551.355 111.56C551.824 111.56 552.261 111.443 552.667 111.208C553.072 110.973 553.397 110.632 553.643 110.184C553.899 109.725 554.027 109.192 554.027 108.584ZM560.391 105.672V110.552C560.391 110.883 560.465 111.123 560.615 111.272C560.775 111.411 561.041 111.48 561.415 111.48H562.535V113H561.095C560.273 113 559.644 112.808 559.207 112.424C558.769 112.04 558.551 111.416 558.551 110.552V105.672H557.511V104.184H558.551V101.992H560.391V104.184H562.535V105.672H560.391ZM563.608 108.552C563.608 107.667 563.789 106.883 564.152 106.2C564.525 105.517 565.026 104.989 565.656 104.616C566.296 104.232 567 104.04 567.768 104.04C568.461 104.04 569.064 104.179 569.576 104.456C570.098 104.723 570.514 105.059 570.824 105.464V104.184H572.664V113H570.824V111.688C570.514 112.104 570.093 112.451 569.56 112.728C569.026 113.005 568.418 113.144 567.736 113.144C566.978 113.144 566.285 112.952 565.656 112.568C565.026 112.173 564.525 111.629 564.152 110.936C563.789 110.232 563.608 109.437 563.608 108.552ZM570.824 108.584C570.824 107.976 570.696 107.448 570.44 107C570.194 106.552 569.869 106.211 569.464 105.976C569.058 105.741 568.621 105.624 568.152 105.624C567.682 105.624 567.245 105.741 566.84 105.976C566.434 106.2 566.104 106.536 565.848 106.984C565.602 107.421 565.48 107.944 565.48 108.552C565.48 109.16 565.602 109.693 565.848 110.152C566.104 110.611 566.434 110.963 566.84 111.208C567.256 111.443 567.693 111.56 568.152 111.56C568.621 111.56 569.058 111.443 569.464 111.208C569.869 110.973 570.194 110.632 570.44 110.184C570.696 109.725 570.824 109.192 570.824 108.584ZM284.896 129.672H283.264V137H281.424V129.672H280.384V128.184H281.424V127.56C281.424 126.547 281.691 125.811 282.224 125.352C282.768 124.883 283.616 124.648 284.768 124.648V126.168C284.213 126.168 283.824 126.275 283.6 126.488C283.376 126.691 283.264 127.048 283.264 127.56V128.184H284.896V129.672ZM288.337 129.464C288.603 129.016 288.955 128.669 289.393 128.424C289.841 128.168 290.369 128.04 290.977 128.04V129.928H290.513C289.798 129.928 289.254 130.109 288.881 130.472C288.518 130.835 288.337 131.464 288.337 132.36V137H286.513V128.184H288.337V129.464ZM296.477 137.144C295.645 137.144 294.893 136.957 294.221 136.584C293.549 136.2 293.021 135.667 292.637 134.984C292.253 134.291 292.061 133.491 292.061 132.584C292.061 131.688 292.258 130.893 292.653 130.2C293.048 129.507 293.586 128.973 294.269 128.6C294.952 128.227 295.714 128.04 296.557 128.04C297.4 128.04 298.162 128.227 298.845 128.6C299.528 128.973 300.066 129.507 300.461 130.2C300.856 130.893 301.053 131.688 301.053 132.584C301.053 133.48 300.85 134.275 300.445 134.968C300.04 135.661 299.485 136.2 298.781 136.584C298.088 136.957 297.32 137.144 296.477 137.144ZM296.477 135.56C296.946 135.56 297.384 135.448 297.789 135.224C298.205 135 298.541 134.664 298.797 134.216C299.053 133.768 299.181 133.224 299.181 132.584C299.181 131.944 299.058 131.405 298.813 130.968C298.568 130.52 298.242 130.184 297.837 129.96C297.432 129.736 296.994 129.624 296.525 129.624C296.056 129.624 295.618 129.736 295.213 129.96C294.818 130.184 294.504 130.52 294.269 130.968C294.034 131.405 293.917 131.944 293.917 132.584C293.917 133.533 294.157 134.269 294.637 134.792C295.128 135.304 295.741 135.56 296.477 135.56ZM313.528 128.04C314.222 128.04 314.84 128.184 315.384 128.472C315.939 128.76 316.371 129.187 316.68 129.752C317 130.317 317.16 131 317.16 131.8V137H315.352V132.072C315.352 131.283 315.155 130.68 314.76 130.264C314.366 129.837 313.827 129.624 313.144 129.624C312.462 129.624 311.918 129.837 311.512 130.264C311.118 130.68 310.92 131.283 310.92 132.072V137H309.112V132.072C309.112 131.283 308.915 130.68 308.52 130.264C308.126 129.837 307.587 129.624 306.904 129.624C306.222 129.624 305.678 129.837 305.272 130.264C304.878 130.68 304.68 131.283 304.68 132.072V137H302.856V128.184H304.68V129.192C304.979 128.829 305.358 128.547 305.816 128.344C306.275 128.141 306.766 128.04 307.288 128.04C307.992 128.04 308.622 128.189 309.176 128.488C309.731 128.787 310.158 129.219 310.456 129.784C310.723 129.251 311.139 128.829 311.704 128.52C312.27 128.2 312.878 128.04 313.528 128.04ZM325.766 129.672V134.552C325.766 134.883 325.84 135.123 325.99 135.272C326.15 135.411 326.416 135.48 326.79 135.48H327.91V137H326.47C325.648 137 325.019 136.808 324.582 136.424C324.144 136.04 323.926 135.416 323.926 134.552V129.672H322.886V128.184H323.926V125.992H325.766V128.184H327.91V129.672H325.766ZM334.151 128.04C334.823 128.04 335.42 128.184 335.943 128.472C336.476 128.76 336.892 129.187 337.191 129.752C337.5 130.317 337.655 131 337.655 131.8V137H335.847V132.072C335.847 131.283 335.649 130.68 335.255 130.264C334.86 129.837 334.321 129.624 333.639 129.624C332.956 129.624 332.412 129.837 332.007 130.264C331.612 130.68 331.415 131.283 331.415 132.072V137H329.591V125.16H331.415V129.208C331.724 128.835 332.113 128.547 332.583 128.344C333.063 128.141 333.585 128.04 334.151 128.04ZM348.061 132.376C348.061 132.707 348.04 133.005 347.997 133.272H341.261C341.315 133.976 341.576 134.541 342.045 134.968C342.515 135.395 343.091 135.608 343.773 135.608C344.755 135.608 345.448 135.197 345.853 134.376H347.821C347.555 135.187 347.069 135.853 346.365 136.376C345.672 136.888 344.808 137.144 343.773 137.144C342.931 137.144 342.173 136.957 341.501 136.584C340.84 136.2 340.317 135.667 339.933 134.984C339.56 134.291 339.373 133.491 339.373 132.584C339.373 131.677 339.555 130.883 339.917 130.2C340.291 129.507 340.808 128.973 341.469 128.6C342.141 128.227 342.909 128.04 343.773 128.04C344.605 128.04 345.347 128.221 345.997 128.584C346.648 128.947 347.155 129.459 347.517 130.12C347.88 130.771 348.061 131.523 348.061 132.376ZM346.157 131.8C346.147 131.128 345.907 130.589 345.437 130.184C344.968 129.779 344.387 129.576 343.693 129.576C343.064 129.576 342.525 129.779 342.077 130.184C341.629 130.579 341.363 131.117 341.277 131.8H346.157ZM357.213 137.144C356.519 137.144 355.895 137.021 355.341 136.776C354.797 136.52 354.365 136.179 354.045 135.752C353.725 135.315 353.554 134.829 353.533 134.296H355.421C355.453 134.669 355.629 134.984 355.949 135.24C356.279 135.485 356.69 135.608 357.181 135.608C357.693 135.608 358.087 135.512 358.365 135.32C358.653 135.117 358.797 134.861 358.797 134.552C358.797 134.221 358.637 133.976 358.317 133.816C358.007 133.656 357.511 133.48 356.829 133.288C356.167 133.107 355.629 132.931 355.213 132.76C354.797 132.589 354.434 132.328 354.125 131.976C353.826 131.624 353.677 131.16 353.677 130.584C353.677 130.115 353.815 129.688 354.093 129.304C354.37 128.909 354.765 128.6 355.277 128.376C355.799 128.152 356.397 128.04 357.069 128.04C358.071 128.04 358.877 128.296 359.485 128.808C360.103 129.309 360.434 129.997 360.477 130.872H358.653C358.621 130.477 358.461 130.163 358.173 129.928C357.885 129.693 357.495 129.576 357.005 129.576C356.525 129.576 356.157 129.667 355.901 129.848C355.645 130.029 355.517 130.269 355.517 130.568C355.517 130.803 355.602 131 355.773 131.16C355.943 131.32 356.151 131.448 356.397 131.544C356.642 131.629 357.005 131.741 357.485 131.88C358.125 132.051 358.647 132.227 359.053 132.408C359.469 132.579 359.826 132.835 360.125 133.176C360.423 133.517 360.578 133.971 360.589 134.536C360.589 135.037 360.45 135.485 360.173 135.88C359.895 136.275 359.501 136.584 358.989 136.808C358.487 137.032 357.895 137.144 357.213 137.144ZM370.639 132.376C370.639 132.707 370.618 133.005 370.575 133.272H363.839C363.893 133.976 364.154 134.541 364.623 134.968C365.093 135.395 365.669 135.608 366.351 135.608C367.333 135.608 368.026 135.197 368.431 134.376H370.399C370.133 135.187 369.647 135.853 368.943 136.376C368.25 136.888 367.386 137.144 366.351 137.144C365.509 137.144 364.751 136.957 364.079 136.584C363.418 136.2 362.895 135.667 362.511 134.984C362.138 134.291 361.951 133.491 361.951 132.584C361.951 131.677 362.133 130.883 362.495 130.2C362.869 129.507 363.386 128.973 364.047 128.6C364.719 128.227 365.487 128.04 366.351 128.04C367.183 128.04 367.925 128.221 368.575 128.584C369.226 128.947 369.733 129.459 370.095 130.12C370.458 130.771 370.639 131.523 370.639 132.376ZM368.735 131.8C368.725 131.128 368.485 130.589 368.015 130.184C367.546 129.779 366.965 129.576 366.271 129.576C365.642 129.576 365.103 129.779 364.655 130.184C364.207 130.579 363.941 131.117 363.855 131.8H368.735ZM374.258 129.464C374.525 129.016 374.877 128.669 375.314 128.424C375.762 128.168 376.29 128.04 376.898 128.04V129.928H376.434C375.72 129.928 375.176 130.109 374.802 130.472C374.44 130.835 374.258 131.464 374.258 132.36V137H372.434V128.184H374.258V129.464ZM381.983 135.368L384.479 128.184H386.415L383.055 137H380.879L377.535 128.184H379.487L381.983 135.368ZM395.874 132.376C395.874 132.707 395.852 133.005 395.81 133.272H389.074C389.127 133.976 389.388 134.541 389.858 134.968C390.327 135.395 390.903 135.608 391.586 135.608C392.567 135.608 393.26 135.197 393.666 134.376H395.634C395.367 135.187 394.882 135.853 394.178 136.376C393.484 136.888 392.62 137.144 391.586 137.144C390.743 137.144 389.986 136.957 389.314 136.584C388.652 136.2 388.13 135.667 387.746 134.984C387.372 134.291 387.186 133.491 387.186 132.584C387.186 131.677 387.367 130.883 387.73 130.2C388.103 129.507 388.62 128.973 389.282 128.6C389.954 128.227 390.722 128.04 391.586 128.04C392.418 128.04 393.159 128.221 393.81 128.584C394.46 128.947 394.967 129.459 395.33 130.12C395.692 130.771 395.874 131.523 395.874 132.376ZM393.97 131.8C393.959 131.128 393.719 130.589 393.25 130.184C392.78 129.779 392.199 129.576 391.506 129.576C390.876 129.576 390.338 129.779 389.89 130.184C389.442 130.579 389.175 131.117 389.09 131.8H393.97ZM399.493 129.464C399.759 129.016 400.111 128.669 400.549 128.424C400.997 128.168 401.525 128.04 402.133 128.04V129.928H401.669C400.954 129.928 400.41 130.109 400.037 130.472C399.674 130.835 399.493 131.464 399.493 132.36V137H397.669V128.184H399.493V129.464ZM404.545 137.112C404.215 137.112 403.937 137 403.713 136.776C403.489 136.552 403.377 136.275 403.377 135.944C403.377 135.613 403.489 135.336 403.713 135.112C403.937 134.888 404.215 134.776 404.545 134.776C404.865 134.776 405.137 134.888 405.361 135.112C405.585 135.336 405.697 135.613 405.697 135.944C405.697 136.275 405.585 136.552 405.361 136.776C405.137 137 404.865 137.112 404.545 137.112ZM419.009 125.88V127.368H416.049V137H414.225V127.368H411.249V125.88H419.009ZM422.68 129.464C422.947 129.016 423.299 128.669 423.736 128.424C424.184 128.168 424.712 128.04 425.32 128.04V129.928H424.856C424.142 129.928 423.598 130.109 423.224 130.472C422.862 130.835 422.68 131.464 422.68 132.36V137H420.856V128.184H422.68V129.464ZM434.933 128.184L429.525 141.144H427.637L429.429 136.856L425.957 128.184H427.989L430.469 134.904L433.045 128.184H434.933ZM439.858 132.552C439.858 131.667 440.039 130.883 440.402 130.2C440.775 129.517 441.276 128.989 441.906 128.616C442.546 128.232 443.25 128.04 444.018 128.04C444.711 128.04 445.314 128.179 445.826 128.456C446.348 128.723 446.764 129.059 447.074 129.464V128.184H448.914V137H447.074V135.688C446.764 136.104 446.343 136.451 445.81 136.728C445.276 137.005 444.668 137.144 443.986 137.144C443.228 137.144 442.535 136.952 441.906 136.568C441.276 136.173 440.775 135.629 440.402 134.936C440.039 134.232 439.858 133.437 439.858 132.552ZM447.074 132.584C447.074 131.976 446.946 131.448 446.69 131C446.444 130.552 446.119 130.211 445.714 129.976C445.308 129.741 444.871 129.624 444.402 129.624C443.932 129.624 443.495 129.741 443.09 129.976C442.684 130.2 442.354 130.536 442.098 130.984C441.852 131.421 441.73 131.944 441.73 132.552C441.73 133.16 441.852 133.693 442.098 134.152C442.354 134.611 442.684 134.963 443.09 135.208C443.506 135.443 443.943 135.56 444.402 135.56C444.871 135.56 445.308 135.443 445.714 135.208C446.119 134.973 446.444 134.632 446.69 134.184C446.946 133.725 447.074 133.192 447.074 132.584ZM454.861 128.04C455.544 128.04 456.147 128.179 456.669 128.456C457.203 128.723 457.619 129.059 457.917 129.464V128.184H459.757V137.144C459.757 137.955 459.587 138.675 459.245 139.304C458.904 139.944 458.408 140.445 457.757 140.808C457.117 141.171 456.349 141.352 455.453 141.352C454.259 141.352 453.267 141.069 452.477 140.504C451.688 139.949 451.24 139.192 451.133 138.232H452.941C453.08 138.691 453.373 139.059 453.821 139.336C454.28 139.624 454.824 139.768 455.453 139.768C456.189 139.768 456.781 139.544 457.229 139.096C457.688 138.648 457.917 137.997 457.917 137.144V135.672C457.608 136.088 457.187 136.44 456.653 136.728C456.131 137.005 455.533 137.144 454.861 137.144C454.093 137.144 453.389 136.952 452.749 136.568C452.12 136.173 451.619 135.629 451.245 134.936C450.883 134.232 450.701 133.437 450.701 132.552C450.701 131.667 450.883 130.883 451.245 130.2C451.619 129.517 452.12 128.989 452.749 128.616C453.389 128.232 454.093 128.04 454.861 128.04ZM457.917 132.584C457.917 131.976 457.789 131.448 457.533 131C457.288 130.552 456.963 130.211 456.557 129.976C456.152 129.741 455.715 129.624 455.245 129.624C454.776 129.624 454.339 129.741 453.933 129.976C453.528 130.2 453.197 130.536 452.941 130.984C452.696 131.421 452.573 131.944 452.573 132.552C452.573 133.16 452.696 133.693 452.941 134.152C453.197 134.611 453.528 134.963 453.933 135.208C454.349 135.443 454.787 135.56 455.245 135.56C455.715 135.56 456.152 135.443 456.557 135.208C456.963 134.973 457.288 134.632 457.533 134.184C457.789 133.725 457.917 133.192 457.917 132.584ZM461.545 132.552C461.545 131.667 461.726 130.883 462.089 130.2C462.462 129.517 462.964 128.989 463.593 128.616C464.233 128.232 464.937 128.04 465.705 128.04C466.398 128.04 467.001 128.179 467.513 128.456C468.036 128.723 468.452 129.059 468.761 129.464V128.184H470.601V137H468.761V135.688C468.452 136.104 468.03 136.451 467.497 136.728C466.964 137.005 466.356 137.144 465.673 137.144C464.916 137.144 464.222 136.952 463.593 136.568C462.964 136.173 462.462 135.629 462.089 134.936C461.726 134.232 461.545 133.437 461.545 132.552ZM468.761 132.584C468.761 131.976 468.633 131.448 468.377 131C468.132 130.552 467.806 130.211 467.401 129.976C466.996 129.741 466.558 129.624 466.089 129.624C465.62 129.624 465.182 129.741 464.777 129.976C464.372 130.2 464.041 130.536 463.785 130.984C463.54 131.421 463.417 131.944 463.417 132.552C463.417 133.16 463.54 133.693 463.785 134.152C464.041 134.611 464.372 134.963 464.777 135.208C465.193 135.443 465.63 135.56 466.089 135.56C466.558 135.56 466.996 135.443 467.401 135.208C467.806 134.973 468.132 134.632 468.377 134.184C468.633 133.725 468.761 133.192 468.761 132.584ZM473.925 127.016C473.594 127.016 473.317 126.904 473.093 126.68C472.869 126.456 472.757 126.179 472.757 125.848C472.757 125.517 472.869 125.24 473.093 125.016C473.317 124.792 473.594 124.68 473.925 124.68C474.245 124.68 474.517 124.792 474.741 125.016C474.965 125.24 475.077 125.517 475.077 125.848C475.077 126.179 474.965 126.456 474.741 126.68C474.517 126.904 474.245 127.016 473.925 127.016ZM474.821 128.184V137H472.997V128.184H474.821ZM481.664 128.04C482.357 128.04 482.976 128.184 483.52 128.472C484.074 128.76 484.506 129.187 484.816 129.752C485.125 130.317 485.28 131 485.28 131.8V137H483.472V132.072C483.472 131.283 483.274 130.68 482.88 130.264C482.485 129.837 481.946 129.624 481.264 129.624C480.581 129.624 480.037 129.837 479.632 130.264C479.237 130.68 479.04 131.283 479.04 132.072V137H477.216V128.184H479.04V129.192C479.338 128.829 479.717 128.547 480.176 128.344C480.645 128.141 481.141 128.04 481.664 128.04ZM493.587 125.16V137H491.763V125.16H493.587ZM495.373 132.552C495.373 131.667 495.555 130.883 495.917 130.2C496.291 129.517 496.792 128.989 497.421 128.616C498.061 128.232 498.765 128.04 499.533 128.04C500.227 128.04 500.829 128.179 501.341 128.456C501.864 128.723 502.28 129.059 502.589 129.464V128.184H504.429V137H502.589V135.688C502.28 136.104 501.859 136.451 501.325 136.728C500.792 137.005 500.184 137.144 499.501 137.144C498.744 137.144 498.051 136.952 497.421 136.568C496.792 136.173 496.291 135.629 495.917 134.936C495.555 134.232 495.373 133.437 495.373 132.552ZM502.589 132.584C502.589 131.976 502.461 131.448 502.205 131C501.96 130.552 501.635 130.211 501.229 129.976C500.824 129.741 500.387 129.624 499.917 129.624C499.448 129.624 499.011 129.741 498.605 129.976C498.2 130.2 497.869 130.536 497.613 130.984C497.368 131.421 497.245 131.944 497.245 132.552C497.245 133.16 497.368 133.693 497.613 134.152C497.869 134.611 498.2 134.963 498.605 135.208C499.021 135.443 499.459 135.56 499.917 135.56C500.387 135.56 500.824 135.443 501.229 135.208C501.635 134.973 501.96 134.632 502.205 134.184C502.461 133.725 502.589 133.192 502.589 132.584ZM508.953 129.672V134.552C508.953 134.883 509.028 135.123 509.177 135.272C509.337 135.411 509.604 135.48 509.977 135.48H511.097V137H509.657C508.836 137 508.206 136.808 507.769 136.424C507.332 136.04 507.113 135.416 507.113 134.552V129.672H506.073V128.184H507.113V125.992H508.953V128.184H511.097V129.672H508.953ZM520.858 132.376C520.858 132.707 520.837 133.005 520.794 133.272H514.058C514.111 133.976 514.373 134.541 514.842 134.968C515.311 135.395 515.887 135.608 516.57 135.608C517.551 135.608 518.245 135.197 518.65 134.376H520.618C520.351 135.187 519.866 135.853 519.162 136.376C518.469 136.888 517.605 137.144 516.57 137.144C515.727 137.144 514.97 136.957 514.298 136.584C513.637 136.2 513.114 135.667 512.73 134.984C512.357 134.291 512.17 133.491 512.17 132.584C512.17 131.677 512.351 130.883 512.714 130.2C513.087 129.507 513.605 128.973 514.266 128.6C514.938 128.227 515.706 128.04 516.57 128.04C517.402 128.04 518.143 128.221 518.794 128.584C519.445 128.947 519.951 129.459 520.314 130.12C520.677 130.771 520.858 131.523 520.858 132.376ZM518.954 131.8C518.943 131.128 518.703 130.589 518.234 130.184C517.765 129.779 517.183 129.576 516.49 129.576C515.861 129.576 515.322 129.779 514.874 130.184C514.426 130.579 514.159 131.117 514.074 131.8H518.954ZM524.477 129.464C524.744 129.016 525.096 128.669 525.533 128.424C525.981 128.168 526.509 128.04 527.117 128.04V129.928H526.653C525.938 129.928 525.394 130.109 525.021 130.472C524.658 130.835 524.477 131.464 524.477 132.36V137H522.653V128.184H524.477V129.464ZM534.774 129.48C535.083 129.075 535.505 128.733 536.038 128.456C536.571 128.179 537.174 128.04 537.846 128.04C538.614 128.04 539.313 128.232 539.942 128.616C540.582 128.989 541.083 129.517 541.446 130.2C541.809 130.883 541.99 131.667 541.99 132.552C541.99 133.437 541.809 134.232 541.446 134.936C541.083 135.629 540.582 136.173 539.942 136.568C539.313 136.952 538.614 137.144 537.846 137.144C537.174 137.144 536.577 137.011 536.054 136.744C535.531 136.467 535.105 136.125 534.774 135.72V141.192H532.95V128.184H534.774V129.48ZM540.134 132.552C540.134 131.944 540.006 131.421 539.75 130.984C539.505 130.536 539.174 130.2 538.758 129.976C538.353 129.741 537.915 129.624 537.446 129.624C536.987 129.624 536.55 129.741 536.134 129.976C535.729 130.211 535.398 130.552 535.142 131C534.897 131.448 534.774 131.976 534.774 132.584C534.774 133.192 534.897 133.725 535.142 134.184C535.398 134.632 535.729 134.973 536.134 135.208C536.55 135.443 536.987 135.56 537.446 135.56C537.915 135.56 538.353 135.443 538.758 135.208C539.174 134.963 539.505 134.611 539.75 134.152C540.006 133.693 540.134 133.16 540.134 132.552ZM545.618 125.16V137H543.794V125.16H545.618ZM556.093 132.376C556.093 132.707 556.071 133.005 556.029 133.272H549.293C549.346 133.976 549.607 134.541 550.077 134.968C550.546 135.395 551.122 135.608 551.805 135.608C552.786 135.608 553.479 135.197 553.885 134.376H555.852C555.586 135.187 555.101 135.853 554.397 136.376C553.703 136.888 552.839 137.144 551.805 137.144C550.962 137.144 550.205 136.957 549.533 136.584C548.871 136.2 548.349 135.667 547.965 134.984C547.591 134.291 547.405 133.491 547.405 132.584C547.405 131.677 547.586 130.883 547.949 130.2C548.322 129.507 548.839 128.973 549.501 128.6C550.173 128.227 550.941 128.04 551.805 128.04C552.637 128.04 553.378 128.221 554.029 128.584C554.679 128.947 555.186 129.459 555.549 130.12C555.911 130.771 556.093 131.523 556.093 132.376ZM554.189 131.8C554.178 131.128 553.938 130.589 553.469 130.184C552.999 129.779 552.418 129.576 551.725 129.576C551.095 129.576 550.557 129.779 550.109 130.184C549.661 130.579 549.394 131.117 549.309 131.8H554.189ZM557.28 132.552C557.28 131.667 557.461 130.883 557.824 130.2C558.197 129.517 558.698 128.989 559.328 128.616C559.968 128.232 560.672 128.04 561.44 128.04C562.133 128.04 562.736 128.179 563.248 128.456C563.77 128.723 564.186 129.059 564.496 129.464V128.184H566.336V137H564.496V135.688C564.186 136.104 563.765 136.451 563.232 136.728C562.698 137.005 562.09 137.144 561.408 137.144C560.65 137.144 559.957 136.952 559.328 136.568C558.698 136.173 558.197 135.629 557.824 134.936C557.461 134.232 557.28 133.437 557.28 132.552ZM564.496 132.584C564.496 131.976 564.368 131.448 564.112 131C563.866 130.552 563.541 130.211 563.136 129.976C562.73 129.741 562.293 129.624 561.824 129.624C561.354 129.624 560.917 129.741 560.512 129.976C560.106 130.2 559.776 130.536 559.52 130.984C559.274 131.421 559.152 131.944 559.152 132.552C559.152 133.16 559.274 133.693 559.52 134.152C559.776 134.611 560.106 134.963 560.512 135.208C560.928 135.443 561.365 135.56 561.824 135.56C562.293 135.56 562.73 135.443 563.136 135.208C563.541 134.973 563.866 134.632 564.112 134.184C564.368 133.725 564.496 133.192 564.496 132.584ZM571.931 137.144C571.238 137.144 570.614 137.021 570.059 136.776C569.515 136.52 569.083 136.179 568.763 135.752C568.443 135.315 568.273 134.829 568.251 134.296H570.139C570.171 134.669 570.347 134.984 570.667 135.24C570.998 135.485 571.409 135.608 571.899 135.608C572.411 135.608 572.806 135.512 573.083 135.32C573.371 135.117 573.515 134.861 573.515 134.552C573.515 134.221 573.355 133.976 573.035 133.816C572.726 133.656 572.23 133.48 571.547 133.288C570.886 133.107 570.347 132.931 569.931 132.76C569.515 132.589 569.153 132.328 568.843 131.976C568.545 131.624 568.395 131.16 568.395 130.584C568.395 130.115 568.534 129.688 568.811 129.304C569.089 128.909 569.483 128.6 569.995 128.376C570.518 128.152 571.115 128.04 571.787 128.04C572.79 128.04 573.595 128.296 574.203 128.808C574.822 129.309 575.153 129.997 575.195 130.872H573.371C573.339 130.477 573.179 130.163 572.891 129.928C572.603 129.693 572.214 129.576 571.723 129.576C571.243 129.576 570.875 129.667 570.619 129.848C570.363 130.029 570.235 130.269 570.235 130.568C570.235 130.803 570.321 131 570.491 131.16C570.662 131.32 570.87 131.448 571.115 131.544C571.361 131.629 571.723 131.741 572.203 131.88C572.843 132.051 573.366 132.227 573.771 132.408C574.187 132.579 574.545 132.835 574.843 133.176C575.142 133.517 575.297 133.971 575.307 134.536C575.307 135.037 575.169 135.485 574.891 135.88C574.614 136.275 574.219 136.584 573.707 136.808C573.206 137.032 572.614 137.144 571.931 137.144ZM585.358 132.376C585.358 132.707 585.337 133.005 585.294 133.272H578.558C578.611 133.976 578.873 134.541 579.342 134.968C579.811 135.395 580.387 135.608 581.07 135.608C582.051 135.608 582.745 135.197 583.15 134.376H585.118C584.851 135.187 584.366 135.853 583.662 136.376C582.969 136.888 582.105 137.144 581.07 137.144C580.227 137.144 579.47 136.957 578.798 136.584C578.137 136.2 577.614 135.667 577.23 134.984C576.857 134.291 576.67 133.491 576.67 132.584C576.67 131.677 576.851 130.883 577.214 130.2C577.587 129.507 578.105 128.973 578.766 128.6C579.438 128.227 580.206 128.04 581.07 128.04C581.902 128.04 582.643 128.221 583.294 128.584C583.945 128.947 584.451 129.459 584.814 130.12C585.177 130.771 585.358 131.523 585.358 132.376ZM583.454 131.8C583.443 131.128 583.203 130.589 582.734 130.184C582.265 129.779 581.683 129.576 580.99 129.576C580.361 129.576 579.822 129.779 579.374 130.184C578.926 130.579 578.659 131.117 578.574 131.8H583.454ZM587.889 137.112C587.558 137.112 587.281 137 587.057 136.776C586.833 136.552 586.721 136.275 586.721 135.944C586.721 135.613 586.833 135.336 587.057 135.112C587.281 134.888 587.558 134.776 587.889 134.776C588.209 134.776 588.481 134.888 588.705 135.112C588.929 135.336 589.041 135.613 589.041 135.944C589.041 136.275 588.929 136.552 588.705 136.776C588.481 137 588.209 137.112 587.889 137.112Z" fill="#FF6969"/>
<path d="M74.752 72.392H37.632V83.144C39.2533 81.6933 41.344 80.5413 43.904 79.688C46.5493 78.8347 49.4933 78.408 52.736 78.408C58.5387 78.408 63.4453 79.7733 67.456 82.504C71.4667 85.2347 74.4533 88.904 76.416 93.512C78.3787 98.0347 79.36 103.069 79.36 108.616C79.36 118.856 76.4587 126.835 70.656 132.552C64.9387 138.184 57.0453 141 46.976 141C39.6373 141 33.28 139.72 27.904 137.16C22.6133 134.6 18.56 131.059 15.744 126.536C13.0133 122.013 11.7333 116.851 11.904 111.048H39.552C39.552 112.413 40.0213 113.693 40.96 114.888C41.8987 116.083 43.4347 116.68 45.568 116.68C47.7013 116.68 49.28 115.912 50.304 114.376C51.328 112.84 51.84 110.749 51.84 108.104C51.84 105.629 51.2427 103.752 50.048 102.472C48.9387 101.192 47.3173 100.552 45.184 100.552C43.392 100.552 42.0267 100.979 41.088 101.832C40.1493 102.685 39.68 103.667 39.68 104.776H12.032V47.432H74.752V72.392ZM88.596 92.872C88.596 78.1093 91.7107 66.504 97.94 58.056C104.255 49.608 113.94 45.384 126.996 45.384C139.967 45.384 149.609 49.6507 155.924 58.184C162.239 66.632 165.396 78.1947 165.396 92.872C165.396 107.635 162.239 119.283 155.924 127.816C149.609 136.264 139.967 140.488 126.996 140.488C113.94 140.488 104.255 136.264 97.94 127.816C91.7107 119.283 88.596 107.635 88.596 92.872ZM137.364 92.872C137.364 86.0453 136.681 80.9253 135.316 77.512C133.951 74.0133 131.177 72.264 126.996 72.264C122.729 72.264 119.913 74.0133 118.548 77.512C117.183 80.9253 116.5 86.0453 116.5 92.872C116.5 99.784 117.183 104.989 118.548 108.488C119.913 111.901 122.729 113.608 126.996 113.608C131.177 113.608 133.951 111.901 135.316 108.488C136.681 104.989 137.364 99.784 137.364 92.872ZM173.346 92.872C173.346 78.1093 176.461 66.504 182.69 58.056C189.005 49.608 198.69 45.384 211.746 45.384C224.717 45.384 234.359 49.6507 240.674 58.184C246.989 66.632 250.146 78.1947 250.146 92.872C250.146 107.635 246.989 119.283 240.674 127.816C234.359 136.264 224.717 140.488 211.746 140.488C198.69 140.488 189.005 136.264 182.69 127.816C176.461 119.283 173.346 107.635 173.346 92.872ZM222.114 92.872C222.114 86.0453 221.431 80.9253 220.066 77.512C218.701 74.0133 215.927 72.264 211.746 72.264C207.479 72.264 204.663 74.0133 203.298 77.512C201.933 80.9253 201.25 86.0453 201.25 92.872C201.25 99.784 201.933 104.989 203.298 108.488C204.663 111.901 207.479 113.608 211.746 113.608C215.927 113.608 218.701 111.901 220.066 108.488C221.431 104.989 222.114 99.784 222.114 92.872Z" fill="#FF6969"/>
</svg>
